<?xml version="1.0" encoding="UTF-8"?>
<svg width="80px" height="80px" viewBox="0 0 80 80" version="1.1" xmlns="http://www.w3.org/2000/svg"
     xmlns:xlink="http://www.w3.org/1999/xlink">
    <!-- Generator: Sketch 51 (57462) - http://www.bohemiancoding.com/sketch -->
    <title>Doctor_female</title>
    <desc>Created with Sketch.</desc>
    <defs>
        <path d="M76.9127381,38.5317556 C76.9127381,59.7564931 59.7065899,76.9626413 38.4818524,76.9626413 C17.2565051,76.9626413 0.0503568768,59.7564931 0.0503568768,38.5317556 C0.0503568768,17.3064083 17.2565051,0.100260087 38.4818524,0.100260087 C59.7065899,0.100260087 76.9127381,17.3064083 76.9127381,38.5317556"
              id="path-1"></path>
        <path d="M76.9127381,38.5317556 C76.9127381,59.7564931 59.7065899,76.9626413 38.4818524,76.9626413 C17.2565051,76.9626413 0.0503568768,59.7564931 0.0503568768,38.5317556 C0.0503568768,17.3064083 17.2565051,0.100260087 38.4818524,0.100260087 C59.7065899,0.100260087 76.9127381,17.3064083 76.9127381,38.5317556"
              id="path-3"></path>
    </defs>
    <g id="Care-Circle" stroke="none" stroke-width="1" fill="none" fill-rule="evenodd">
        <g id="13.-MDx---Care-Circle---Illustrations" transform="translate(-397.000000, -429.000000)">
            <rect fill="#FFFFFF" x="0" y="0" width="605" height="1581"></rect>
            <g id="Doctor_female" transform="translate(398.858575, 430.680000)">
                <mask id="mask-2" fill="white">
                    <use xlink:href="#path-1"></use>
                </mask>
                <use id="Mask" fill="#FFFFFF" xlink:href="#path-1"></use>
                <g id="Group" mask="url(#mask-2)">
                    <g transform="translate(9.066463, 11.728944)" id="Group-8">
                        <g>
                            <polygon id="Fill-171-Copy" fill="#F2C9B2"
                                     points="23.179169 67.2020211 35.651 67.2020211 35.651 42.0495915 23.179169 42.0495915"></polygon>
                            <path d="M35.651,48.4232394 L23.179169,44.0656901 L23.179169,43.1791056 L23.2415282,43.1791056 C25.2489507,44.5206408 27.4190493,45.3605915 29.4150845,45.3605915 C31.4105775,45.3605915 33.5806761,44.5206408 35.5886408,43.1791056 L35.651,43.1791056 L35.651,48.4232394"
                                  id="Fill-172-Copy" fill="#E69F80"></path>
                            <path d="M51.2857958,29.2735563 C51.2857958,33.3664859 47.9677465,36.6845352 43.8748169,36.6845352 C39.7824296,36.6845352 36.4643803,33.3664859 36.4643803,29.2735563 C36.4643803,25.1806268 39.7824296,21.8631197 43.8748169,21.8631197 C47.9677465,21.8631197 51.2857958,25.1806268 51.2857958,29.2735563"
                                  id="Fill-205-Copy" fill="#211914"></path>
                            <path d="M29.4150845,4.14932394 C23.4253521,4.14932394 15.8587465,11.7159296 15.8587465,17.705662 L15.8587465,31.8042535 C15.8587465,37.7939859 23.4253521,45.3605915 29.4150845,45.3605915 C35.4042746,45.3605915 42.9714225,37.7939859 42.9714225,31.8042535 L42.9714225,17.705662 C42.9714225,11.7159296 35.4042746,4.14932394 29.4150845,4.14932394"
                                  id="Fill-206-Copy" fill="#EAB093"></path>
                            <path d="M29.4150845,0.0341619718 C9.43846479,0.0341619718 11.3363521,25.5976197 16.4167254,29.6569296 C16.4167254,29.6569296 11.7500915,9.89829577 29.4150845,9.9248662 C47.0800775,9.89829577 42.4129014,29.6569296 42.4129014,29.6569296 C47.4932746,25.5976197 49.391162,0.0341619718 29.4150845,0.0341619718"
                                  id="Fill-207-Copy" fill="#2D2119"></path>
                            <path d="M15.8587465,23.3450986 C14.3610423,23.3450986 13.1474789,24.5592042 13.1474789,26.0563662 L13.1474789,28.8760845 C13.1474789,30.3732465 14.3610423,31.5873521 15.8587465,31.5873521 C17.3559085,31.5873521 18.5700141,30.3732465 18.5700141,28.8760845 L18.5700141,26.0563662 C18.5700141,24.5592042 17.3559085,23.3450986 15.8587465,23.3450986"
                                  id="Fill-208-Copy" fill="#EAB093"></path>
                            <path d="M39.5633592,21.3262887 C38.3091268,20.285162 37.3374085,19.091662 36.7799718,17.9073803 C38.8573451,19.6653662 41.9530704,20.824162 44.463162,20.7829507 C41.1483662,15.8988732 42.5620211,7.50533099 39.2423451,5.70667606 C21.7064085,-3.79360563 16.5783169,11.9545211 16.5783169,11.9545211 C16.5783169,11.9545211 11.6562817,23.4774085 15.8587465,23.3450986 C18.5542887,23.260507 22.028507,17.1780493 24.1747465,12.8253803 C26.1382465,15.5800282 29.112507,18.2728592 32.2955352,19.6946479 C30.9892465,18.4089648 30.1427887,16.9584366 29.9199225,15.6239507 C32.1892535,18.203993 35.8749507,20.3838521 39.5633592,21.3262887"
                                  id="Fill-210-Copy" fill="#2D2119"></path>
                            <path d="M29.4150845,45.3605915 L29.4150845,35.3289014 L26.7038169,34.7866479 C26.7038169,34.7866479 27.4369437,30.3168521 29.4150845,26.1105915 L29.4150845,18.0386056 C30.3390845,18.6893099 31.307007,19.2532535 32.2955352,19.6946479 C32.2955352,19.6946479 32.2955352,19.6946479 32.2960775,19.6946479 C30.9892465,18.4089648 30.1427887,16.9584366 29.9199225,15.6239507 C32.1892535,18.203993 35.8749507,20.3838521 39.5633592,21.3262887 C38.3091268,20.285162 37.3374085,19.091662 36.7799718,17.9073803 C36.7870211,17.9133451 36.7946127,17.9198521 36.801662,17.9258169 C36.8043732,17.9279859 36.8070845,17.9306972 36.8097958,17.9323239 C36.8146761,17.936662 36.8190141,17.9404577 36.8238944,17.9442535 C36.8271479,17.9469648 36.8304014,17.9496761 36.8336549,17.9523873 C36.8374507,17.9556408 36.8412465,17.9588944 36.8450423,17.9621479 C36.8493803,17.9654014 36.8531761,17.9686549 36.8569718,17.9719085 C36.8596831,17.9740775 36.8618521,17.9762465 36.8645634,17.9784155 C38.4674648,19.3042254 40.6473239,20.2781127 42.6975845,20.6349155 C42.8472465,21.5594577 42.9258732,22.4731549 42.9562394,23.3450986 C41.4655845,23.3532324 40.2601549,24.5640845 40.2601549,26.0563662 L40.2601549,28.8760845 C40.2601549,30.3732465 41.4737183,31.5873521 42.9714225,31.5873521 L42.9714225,31.8042535 C42.9714225,33.2764718 42.5137606,34.8441268 41.7356268,36.3711127 C39.347,41.0567254 33.9320563,45.3605915 29.4150845,45.3605915 M36.194338,24.871 C36.1688521,24.871 36.1439085,24.8715423 36.1184225,24.8720845 C34.9363099,24.913838 34.0117676,25.9050775 34.0529789,27.0871901 C34.0931056,28.2438169 35.0436761,29.1537183 36.1916268,29.1537183 C36.2171127,29.1537183 36.2425986,29.1537183 36.2680845,29.1526338 C37.4496549,29.1114225 38.3747394,28.1196408 38.3329859,26.9375282 C38.2928592,25.7809014 37.3422887,24.871 36.194338,24.871"
                                  id="Fill-212-Copy" fill="#EAB093"></path>
                            <path d="M42.9714225,31.5873521 C41.4737183,31.5873521 40.2601549,30.3732465 40.2601549,28.8760845 L40.2601549,26.0563662 C40.2601549,24.5640845 41.4655845,23.3532324 42.9562394,23.3450986 C42.9611197,23.3450986 42.966,23.3450986 42.9714225,23.3450986 C43.0928873,23.3450986 43.2094718,23.365162 43.3271408,23.3808873 C44.4512324,23.530007 45.3562535,24.3574859 45.6078592,25.446331 C45.6523239,25.6393732 45.6810634,25.837838 45.6821479,26.0433521 C45.6826901,26.0476901 45.6826901,26.0520282 45.6826901,26.0563662 L45.6826901,28.8760845 C45.6826901,30.3732465 44.4685845,31.5873521 42.9714225,31.5873521"
                                  id="Fill-214-Copy" fill="#EAB093"></path>
                            <path d="M51.3568469,68.602662 C51.3568469,79.1706408 41.4878328,87.7377042 29.3088187,87.7377042 C17.1298046,87.7377042 7.255368,79.1706408 7.255368,68.602662 C7.255368,58.0346831 17.1298046,49.4676197 29.3088187,49.4676197 C41.4878328,49.4676197 51.3568469,58.0346831 51.3568469,68.602662"
                                  id="Fill-286" fill="#A4D5C9"></path>
                            <polyline id="Fill-289" fill="#3B3940"
                                      points="32.4105088 56.1698732 31.2283962 58.4392042 27.6224103 58.4392042 26.4728328 56.1698732 29.4443821 53.741662 32.4105088 56.1698732"></polyline>
                            <polyline id="Fill-290" fill="#65BEAD"
                                      points="23.2084666 47.9796761 29.4443821 53.7411197 25.6486074 57.7402394 20.1013539 49.6492746 23.2084666 47.9796761"></polyline>
                            <polyline id="Fill-291" fill="#65BEAD"
                                      points="35.6802976 47.9796761 29.4443821 53.7411197 33.2401567 57.7402394 38.7874103 49.6492746 35.6802976 47.9796761"></polyline>
                            <polyline id="Fill-292" fill="#3B3940"
                                      points="31.2283962 58.9814577 32.6979032 80.2226127 29.4443821 83.818838 26.190861 80.2226127 27.6224103 58.9814577 31.2283962 58.9814577"></polyline>
                            <path d="M51.6225511,66.7004366 C51.6225511,57.4279014 45.2239595,49.6546972 36.596706,47.5485845 L29.4443821,76.5596901 L22.2866356,47.5485845 C13.6593821,49.6546972 7.26079053,57.4279014 7.26079053,66.7004366 L5.33579053,133.475162 L53.5475511,133.475162 L51.6225511,66.7004366"
                                  id="Fill-293" fill="#FFFFFE"></path>
                            <polyline id="Fill-295" fill="#E5E6E3"
                                      points="38.2451567 57.3546972 43.36403 54.4639437 36.6292412 47.2357042 29.7426215 75.3520915 29.1461426 75.3520915 22.2595229 47.2357042 15.5247342 54.4639437 20.6436074 57.3546972 17.7859314 59.9092535 28.9021286 75.7853521 28.9021286 133.475162 29.9866356 133.475162 29.9866356 75.7848099 41.1028328 59.9092535 38.2451567 57.3546972"></polyline>
                            <path d="M19.9115652,104.507979 C10.9589595,92.6700423 2.87938208,73.494331 18.4095229,62.9323169 C4.25128349,74.0664085 12.9164948,91.6831408 22.4384666,102.45338 C21.5979736,103.138246 20.7520581,103.823113 19.9115652,104.507979"
                                  id="Fill-299" fill="#E5E6E3"></path>
                            <path d="M12.7646638,110.328528 C2.29374828,97.4689859 -1.00315313,85.2509296 0.818818703,74.0127254 C2.98241025,60.7031127 14.0172694,51.7515915 14.4510722,51.4761268 L18.3769877,62.9556338 L18.4095229,62.9323169 C18.1383962,63.1118028 11.723537,67.4221761 10.416706,75.9111549 C9.180368,83.9224085 12.8026215,93.1981972 21.1750159,103.480408 L12.7646638,110.328528"
                                  id="Fill-300" fill="#FFFFFE"></path>
                            <path d="M38.9717764,104.507979 C38.1312835,103.823113 37.2907905,103.138246 36.4502976,102.45338 C45.9668469,91.6831408 54.6374807,74.0664085 40.4738187,62.9323169 C56.0039595,73.494331 47.9243821,92.6700423 38.9717764,104.507979"
                                  id="Fill-304" fill="#E5E6E3"></path>
                            <path d="M46.1186779,110.328528 C56.5895934,97.4689859 59.8919173,85.2509296 58.0645229,74.0127254 C55.9009314,60.7031127 45.1914243,52.0286831 44.7576215,51.7532183 L40.5117764,62.9556338 L40.4738187,62.9323169 C40.7449455,63.1118028 47.1652272,67.4221761 48.4720581,75.9111549 C49.7029736,83.9224085 46.0807201,93.1981972 37.7083257,103.480408 L46.1186779,110.328528"
                                  id="Fill-305" fill="#FFFFFE"></path>
                            <path d="M42.7675511,61.4568451 C42.745861,60.9292324 42.1548046,48.7865493 35.6802976,47.0139225 L35.6802976,48.1461479 C41.1299455,50.0234296 41.6830441,61.3841831 41.6884666,61.5029366 L41.7101567,62.0446479 L42.7946638,61.9985563 L42.7675511,61.4568451"
                                  id="Fill-306" fill="#9FA2A1"></path>
                            <path d="M23.2084666,48.0165493 L23.2084666,46.8658873 L23.0349455,46.9233662 C12.94903,50.2842535 16.9400159,75.1194648 17.113537,76.1746901 L17.2057201,76.7098944 L18.2739595,76.5325775 L18.187199,75.9973732 C18.1438187,75.7495634 14.2124807,51.3400211 23.2084666,48.0165493"
                                  id="Fill-307" fill="#9FA2A1"></path>
                            <path d="M37.9469173,67.0523592 C38.0282553,65.5394718 38.6084666,62.0218732 42.2307201,62.0218732 C45.8529736,62.0218732 46.4277624,65.5400141 46.5091004,67.0523592 C46.7043117,70.6388239 45.066706,74.7187394 42.2307201,76.9023944 C39.3947342,74.7187394 37.751706,70.6388239 37.9469173,67.0523592 Z M45.9505793,78.4402254 C44.9419877,78.3323169 44.0093117,78.0080493 43.1633962,77.5238169 C46.1078328,75.0603592 47.7942412,70.7760141 47.5936074,66.994338 C47.3929736,63.2582113 45.3378328,60.9373662 42.2307201,60.9373662 C39.1181849,60.9373662 37.0630441,63.2582113 36.8624103,66.994338 C36.6617764,70.7760141 38.3481849,75.0603592 41.2926215,77.5238169 C40.446706,78.0080493 39.51403,78.3323169 38.5054384,78.4402254 C38.207199,78.4722183 37.9902976,78.7395493 38.0228328,79.0372465 C38.055368,79.3154225 38.288537,79.5214789 38.5650863,79.5214789 L38.6193117,79.5187676 C39.9424103,79.3766972 41.1516356,78.9098169 42.2307201,78.2130211 C43.3043821,78.9098169 44.5136074,79.3766972 45.836706,79.5187676 L45.8909314,79.5214789 C46.1674807,79.5214789 46.4006497,79.3154225 46.4331849,79.0372465 C46.4657201,78.7395493 46.2488187,78.4722183 45.9505793,78.4402254 Z"
                                  id="Fill-308" fill="#9FA2A1"></path>
                            <path d="M45.9722694,26.0222042 C45.9722694,26.0178662 45.9722694,26.0135282 45.9722694,26.0091901 C45.9722694,26.0135282 45.9722694,26.0178662 45.9722694,26.0222042"
                                  id="Fill-321" fill="#A4B7A9"></path>
                            <path d="M13.2473656,15.0486197 C18.3960628,12.6404718 30.7383391,8.37639263 45.5830715,14.9127166 C45.552163,13.8667095 45.1294824,12.6967312 44.9663067,11.7452557 C30.9897222,6.11449512 19.8939066,9.44876761 13.8315122,11.9772958 C13.6091743,12.7990518 13.2744783,13.9971901 13.2473656,15.0486197 Z"
                                  id="Fill-437-Copy" fill="#D2D2CC"></path>
                            <path d="M33.6463046,10.322338 C33.6463046,12.5683521 31.8254173,14.3892394 29.5794032,14.3892394 C27.3333891,14.3892394 25.5125018,12.5683521 25.5125018,10.322338 C25.5125018,8.07632394 27.3333891,6.25543662 29.5794032,6.25543662 C31.8254173,6.25543662 33.6463046,8.07632394 33.6463046,10.322338"
                                  id="Fill-438-Copy" fill="#D2D2CC"></path>
                            <path d="M29.5794032,5.17092958 C26.7390793,5.17092958 24.4279948,7.48201408 24.4279948,10.322338 C24.4279948,13.162662 26.7390793,15.4737465 29.5794032,15.4737465 C32.4202694,15.4737465 34.7308117,13.162662 34.7308117,10.322338 C34.7308117,7.48201408 32.4202694,5.17092958 29.5794032,5.17092958 Z M29.5794032,6.25543662 C31.8254173,6.25543662 33.6463046,8.07632394 33.6463046,10.322338 C33.6463046,12.5683521 31.8254173,14.3892394 29.5794032,14.3892394 C27.3333891,14.3892394 25.5125018,12.5683521 25.5125018,10.322338 C25.5125018,8.07632394 27.3333891,6.25543662 29.5794032,6.25543662 Z"
                                  id="Fill-439-Copy" fill="#9FA2A1"></path>
                            <path d="M31.3194948,10.322338 C31.3194948,11.2832113 30.5408187,12.0624296 29.5794032,12.0624296 C28.61853,12.0624296 27.8398539,11.2832113 27.8398539,10.322338 C27.8398539,9.36146479 28.61853,8.58224648 29.5794032,8.58224648 C30.5408187,8.58224648 31.3194948,9.36146479 31.3194948,10.322338"
                                  id="Fill-440-Copy" fill="#F3F4F1"></path>
                        </g>
                    </g>
                </g>
                <mask id="mask-4" fill="white">
                    <use xlink:href="#path-3"></use>
                </mask>
                <use id="Mask-Copy-4" stroke="#2286EA" stroke-width="2" xlink:href="#path-3"></use>
            </g>
        </g>
    </g>
</svg>