<?xml version="1.0" encoding="UTF-8"?>
<svg width="80px" height="80px" viewBox="0 0 80 80" version="1.1" xmlns="http://www.w3.org/2000/svg" xmlns:xlink="http://www.w3.org/1999/xlink">
    <!-- Generator: Sketch 51 (57462) - http://www.bohemiancoding.com/sketch -->
    <title>Doctor_male</title>
    <desc>Created with Sketch.</desc>
    <defs>
        <path d="M77.0635005,38.5317556 C77.0635005,59.7564931 59.8573523,76.9626413 38.6326148,76.9626413 C17.4072674,76.9626413 0.201119242,59.7564931 0.201119242,38.5317556 C0.201119242,17.3064083 17.4072674,0.100260087 38.6326148,0.100260087 C59.8573523,0.100260087 77.0635005,17.3064083 77.0635005,38.5317556" id="path-1"></path>
        <path d="M77.0635005,38.5317556 C77.0635005,59.7564931 59.8573523,76.9626413 38.6326148,76.9626413 C17.4072674,76.9626413 0.201119242,59.7564931 0.201119242,38.5317556 C0.201119242,17.3064083 17.4072674,0.100260087 38.6326148,0.100260087 C59.8573523,0.100260087 77.0635005,17.3064083 77.0635005,38.5317556" id="path-3"></path>
    </defs>
    <g id="Care-Circle" stroke="none" stroke-width="1" fill="none" fill-rule="evenodd">
        <g id="13.-MDx---Care-Circle---Illustrations" transform="translate(-113.000000, -429.000000)">
            <rect fill="#FFFFFF" x="0" y="0" width="605" height="1581"></rect>
            <g id="Doctor_male" transform="translate(114.500000, 430.680000)">
                <mask id="mask-2" fill="white">
                    <use xlink:href="#path-1"></use>
                </mask>
                <use id="Mask" fill="#FFFFFF" xlink:href="#path-1"></use>
                <g id="Group-7" mask="url(#mask-2)">
                    <g transform="translate(4.338028, 9.760563)">
                        <path d="M56.359662,71.2260845 C56.359662,81.7940634 46.4868521,90.3611268 34.307838,90.3611268 C22.1293662,90.3611268 12.2565563,81.7940634 12.2565563,71.2260845 C12.2565563,60.6575634 22.1293662,52.0905 34.307838,52.0905 C46.4868521,52.0905 56.359662,60.6575634 56.359662,71.2260845" id="Fill-382" fill="#A4D5C9"></path>
                        <polygon id="Fill-383" fill="#F2C9B2" points="28.0583662 56.1221549 40.5301972 56.1221549 40.5301972 43.9832676 28.0583662 43.9832676"></polygon>
                        <path d="M40.5301972,50.3574577 L28.0583662,45.9999085 L28.0583662,45.4375915 C29.9253451,46.4065986 32.0455563,46.9542746 34.2942817,46.9542746 C36.5424648,46.9542746 38.6637606,46.4065986 40.5301972,45.4375915 L40.5301972,50.3574577" id="Fill-384" fill="#E69F80"></path>
                        <polyline id="Fill-385" fill="#3B3940" points="37.2652887 58.1382535 36.0804648 60.4075845 32.4744789 60.4075845 31.3238169 58.1382535 34.2942817 55.7100423 37.2652887 58.1382535"></polyline>
                        <polyline id="Fill-386" fill="#65BEAD" points="28.0583662 49.9480563 34.296993 55.7095 30.5012183 59.7086197 24.9555915 51.6176549 28.0583662 49.9480563"></polyline>
                        <polyline id="Fill-387" fill="#65BEAD" points="40.5350775 49.9480563 34.296993 55.7095 38.0927676 59.7086197 43.6378521 51.6176549 40.5350775 49.9480563"></polyline>
                        <polyline id="Fill-388" fill="#3B3940" points="36.0804648 60.949838 37.5478028 82.190993 34.2942817 85.7872183 31.0407606 82.190993 32.4744789 60.949838 36.0804648 60.949838"></polyline>
                        <path d="M42.1672606,50.8308451 L34.2942817,82.743007 L26.4213028,50.8308451 C16.9351197,53.1473521 9.89287324,61.6981479 9.89287324,71.8979366 L9.89287324,141.848641 L58.6956901,141.848641 L58.6956901,71.8979366 C58.6956901,61.6981479 51.6534437,53.1473521 42.1672606,50.8308451" id="Fill-389" fill="#FFFFFE"></path>
                        <polyline id="Fill-392" fill="#E5E6E3" points="43.6378521 60.949838 48.7567254 58.0590845 42.1699718 50.8308451 34.5643239 81.6585 34.0291197 81.6585 26.4240141 50.8308451 19.8367183 58.0590845 24.9555915 60.949838 22.0962887 63.5043944 33.7547394 81.8878732 33.7547394 141.848641 34.8392465 141.848641 34.8392465 81.8878732 46.4976972 63.5043944 43.6378521 60.949838"></polyline>
                        <path d="M63.8942746,87.6748028 C62.1422535,87.6748028 60.4710282,86.824007 59.4450845,85.3507042 L45.4424718,65.2423169 L54.2595141,58.755338 L61.2909155,69.0234507 L64.1155141,56.3650845 L74.6997606,58.7271408 L69.1877535,83.4327535 C68.7187042,85.5323592 67.0534437,87.1564085 64.9424507,87.5723169 C64.5932394,87.6411831 64.2418592,87.6748028 63.8942746,87.6748028" id="Fill-403" fill="#FFFFFE"></path>
                        <path d="M45.4337958,76.5857183 L44.6670493,75.8189718 L44.2966901,76.1898732 C43.6980423,75.2859366 43.3981761,74.2426408 43.3981761,73.1988028 C43.3981761,71.8111761 43.9279577,70.4235493 44.9864366,69.3645282 C45.6669648,68.684 46.4830563,68.2225423 47.3479507,67.9790704 L50.0955493,71.924507 L45.4337958,76.5857183" id="Fill-409" fill="#FBFAF8"></path>
                        <path d="M50.0955493,71.924507 L47.3479507,67.9790704 C47.8289296,67.8440493 48.3250915,67.7762676 48.8212535,67.7762676 C50.2088803,67.7762676 51.596507,68.305507 52.6555282,69.3645282 L50.0955493,71.924507" id="Fill-410" fill="#FBFAF8"></path>
                        <polyline id="Fill-416" fill="#FFFFFE" points="22.644507 65.7932465 13.3708873 80.8613873 26.4196761 87.3955423"></polyline>
                        <polyline id="Fill-417" fill="#E5E6E3" points="22.644507 65.7932465 13.8773521 81.1726408 13.6371338 80.3299789 26.904993 86.425993 25.9338169 88.3650915 13.1051831 81.3927958 12.5179225 81.0739507 22.644507 65.7932465"></polyline>
                        <path d="M21.5637958,97.092662 L3.22261268,87.9079718 C1.8631831,87.2269014 0.851880282,86.006831 0.435429577,84.5443732 C0.0189788732,83.0824577 0.235880282,81.5120915 1.03299296,80.2177324 L13.905007,59.3333803 L22.644507,65.7932465 L13.3708873,80.8613873 L26.4196761,87.3955423 L21.5637958,97.092662" id="Fill-420" fill="#FFFFFE"></path>
                        <path d="M34.2942817,5.74300704 C26.8073873,5.74300704 20.7379437,11.8124507 20.7379437,19.2993451 L20.7379437,33.3979366 C20.7379437,40.884831 26.8073873,46.9542746 34.2942817,46.9542746 C41.7811761,46.9542746 47.8506197,40.884831 47.8506197,33.3979366 L47.8506197,19.2993451 C47.8506197,11.8124507 41.7811761,5.74300704 34.2942817,5.74300704" id="Fill-421" fill="#EAB093"></path>
                        <path d="M49.0067042,9.27416197 C49.9345,7.8469507 50.5993028,6.13885211 50.5195915,4.21222535 C49.5505845,4.42316197 48.7117183,4.48064085 47.968831,4.44539437 C48.5224718,3.72257042 48.6856901,2.95040141 48.7328662,2.5713662 C48.7458803,2.46725352 48.6374296,2.39621831 48.5425352,2.44176761 C45.7271549,3.79414789 42.315838,2.14190141 42.315838,2.14190141 L42.3163803,2.14244366 C40.0785,1.03570423 37.7440986,0.450612676 34.2964507,0.543338028 C22.900993,0.533577465 19.5867394,9.27416197 19.5867394,9.27416197 C17.0343521,15.2899225 17.7468732,23.5538662 20.7563803,31.2506127 C20.8122324,31.381838 20.8707958,31.5098099 20.9288169,31.6383239 C20.8040986,31.0255775 20.713,30.3992746 20.6631127,29.7610423 C20.7005282,27.2932465 20.4239789,24.6557254 20.7379437,24.9387817 C23.0365563,21.8810141 23.8217394,15.667331 23.8217394,15.667331 C23.8217394,15.667331 28.637493,16.7014085 34.2964507,16.9410845 C39.9559507,16.7014085 44.7717042,15.667331 44.7717042,15.667331 C44.7717042,15.667331 45.552007,21.8810141 47.8506197,24.9387817 C48.1645845,24.6557254 47.8929155,27.2932465 47.930331,29.7610423 C47.8804437,30.3992746 47.7893451,31.0255775 47.6646268,31.6383239 C47.7226479,31.5098099 47.7812113,31.381838 47.8370634,31.2506127 C50.8465704,23.5538662 51.5590915,15.2899225 49.0067042,9.27416197" id="Fill-422" fill="#2D2119"></path>
                        <path d="M20.7379437,24.9387817 C19.2407817,24.9387817 18.0266761,26.1523451 18.0266761,27.6500493 L18.0266761,30.4697676 C18.0266761,31.9669296 19.2407817,33.1810352 20.7379437,33.1810352 C22.2356479,33.1810352 23.4492113,31.9669296 23.4492113,30.4697676 L23.4492113,27.6500493 C23.4492113,26.1523451 22.2356479,24.9387817 20.7379437,24.9387817" id="Fill-428" fill="#EAB093"></path>
                        <path d="M47.8506197,24.9387817 C46.3534577,24.9387817 45.1393521,26.1523451 45.1393521,27.6500493 L45.1393521,30.4697676 C45.1393521,31.9669296 46.3534577,33.1810352 47.8506197,33.1810352 C49.3477817,33.1810352 50.5618873,31.9669296 50.5618873,30.4697676 L50.5618873,27.6500493 C50.5618873,26.1523451 49.3477817,24.9387817 47.8506197,24.9387817" id="Fill-429" fill="#F2C9B2"></path>
                        <path d="M34.2942817,46.9542746 L34.2942817,35.2958239 L31.0407606,35.2958239 C31.0407606,35.2958239 32.3161408,29.1992676 34.2942817,24.993007 L34.2942817,16.9410845 C34.2953662,16.9410845 34.2959085,16.9410845 34.2964507,16.9410845 C39.9559507,16.7014085 44.7717042,15.667331 44.7717042,15.667331 C44.7717042,15.667331 45.552007,21.8810141 47.8506197,24.9387817 C46.3534577,24.9387817 45.1393521,26.1523451 45.1393521,27.6500493 L45.1393521,30.4697676 C45.1393521,31.9669296 46.3534577,33.1810352 47.8506197,33.1810352 L47.8506197,33.3979366 C47.8506197,40.884831 41.7811761,46.9542746 34.2942817,46.9542746 M38.4056479,26.3573169 C38.3915493,26.4706479 38.3861268,26.5866901 38.3899225,26.7043592 C38.4305915,27.8604437 39.3806197,28.7708873 40.5285704,28.7708873 C40.5540563,28.7708873 40.5795423,28.7703451 40.6050282,28.7692606 C41.7871408,28.7280493 42.7116831,27.7368099 42.6704718,26.5546972 C42.6683028,26.4885423 42.6628803,26.4234718 42.6547465,26.3589437 C42.6693873,26.2456127 42.6748099,26.1301127 42.6704718,26.0124437 C42.6303451,24.8558169 41.6797746,23.9453732 40.5312817,23.9453732 C40.506338,23.9453732 40.4808521,23.9459155 40.4553662,23.947 C39.2737958,23.9882113 38.3487113,24.979993 38.3899225,26.1621056 C38.3926338,26.2277183 38.3975141,26.293331 38.4056479,26.3573169" id="Fill-430" fill="#EAB093"></path>
                        <path d="M34.2964507,16.9410845 C34.2959085,16.9410845 34.2953662,16.9410845 34.2942817,16.9410845 L34.2964507,16.9410845" id="Fill-431" fill="#2B1E17"></path>
                        <path d="M50.5618873,27.6310704 C50.5618873,27.6299859 50.5618873,27.6289014 50.5618873,27.6278169 C50.5618873,27.6289014 50.5618873,27.6299859 50.5618873,27.6310704 M50.5618873,27.6115493 C50.5618873,27.611007 50.5618873,27.6104648 50.5618873,27.6099225 C50.5618873,27.6104648 50.5618873,27.611007 50.5618873,27.6115493" id="Fill-435" fill="#A4B7A9"></path>
                        <path d="M47.8506197,33.1810352 C46.3534577,33.1810352 45.1393521,31.9669296 45.1393521,30.4697676 L45.1393521,27.6500493 C45.1393521,26.1523451 46.3534577,24.9387817 47.8506197,24.9387817 L47.8630915,24.9398662 L47.9270775,24.9463732 C48.5669366,24.9648099 49.1460634,25.2071972 49.6010141,25.5949085 L49.6031831,25.5970775 C50.1758028,26.0861901 50.5499577,26.8008803 50.5618873,27.6099225 C50.5618873,27.6104648 50.5618873,27.611007 50.5618873,27.6115493 C50.5618873,27.6169718 50.5618873,27.6223944 50.5618873,27.6278169 C50.5618873,27.6289014 50.5618873,27.6299859 50.5618873,27.6310704 C50.5618873,27.6375775 50.5618873,27.6435423 50.5618873,27.6500493 L50.5618873,30.4697676 C50.5618873,30.5104366 50.5608028,30.5511056 50.5591761,30.5917746 C50.4951901,32.0325423 49.3071127,33.1810352 47.8506197,33.1810352" id="Fill-436" fill="#EAB093"></path>
                        <path d="M18.3205775,13.9456761 C18.1714577,14.9407113 18.0809014,15.9655704 18.0537887,17.017 C23.2024859,14.6088521 35.7057676,10.3841549 50.5505,16.9204789 C50.5195915,15.8744718 50.4290352,14.8539507 50.276662,13.864338 C36.3000775,8.23357746 24.3829718,11.4171479 18.3205775,13.9456761" id="Fill-437" fill="#D2D2CC"></path>
                        <path d="M38.3747394,12.2907183 C38.3747394,14.5367324 36.5538521,16.3576197 34.307838,16.3576197 C32.0618239,16.3576197 30.2409366,14.5367324 30.2409366,12.2907183 C30.2409366,10.0447042 32.0618239,8.2238169 34.307838,8.2238169 C36.5538521,8.2238169 38.3747394,10.0447042 38.3747394,12.2907183" id="Fill-438" fill="#D2D2CC"></path>
                        <path d="M34.307838,7.13930986 C31.4675141,7.13930986 29.1564296,9.45039437 29.1564296,12.2907183 C29.1564296,15.1310423 31.4675141,17.4421268 34.307838,17.4421268 C37.1487042,17.4421268 39.4592465,15.1310423 39.4592465,12.2907183 C39.4592465,9.45039437 37.1487042,7.13930986 34.307838,7.13930986 Z M34.307838,8.2238169 C36.5538521,8.2238169 38.3747394,10.0447042 38.3747394,12.2907183 C38.3747394,14.5367324 36.5538521,16.3576197 34.307838,16.3576197 C32.0618239,16.3576197 30.2409366,14.5367324 30.2409366,12.2907183 C30.2409366,10.0447042 32.0618239,8.2238169 34.307838,8.2238169 Z" id="Fill-439" fill="#9FA2A1"></path>
                        <path d="M36.0479296,12.2907183 C36.0479296,13.2515915 35.2692535,14.0308099 34.307838,14.0308099 C33.3469648,14.0308099 32.5682887,13.2515915 32.5682887,12.2907183 C32.5682887,11.3298451 33.3469648,10.5506268 34.307838,10.5506268 C35.2692535,10.5506268 36.0479296,11.3298451 36.0479296,12.2907183" id="Fill-440" fill="#F3F4F1"></path>
                        <g id="Group-4" stroke-width="1" fill="none" transform="translate(17.894366, 48.802817)">
                            <path d="M29.6016197,14.6224085 C29.5799296,14.0947958 28.9888732,1.95211268 22.5143662,0.179485915 L22.5143662,1.31171127 C27.9640141,3.18899296 28.5171127,14.5497465 28.5225352,14.6685 L28.5442254,15.2102113 L29.6287324,15.1641197 L29.6016197,14.6224085" id="Fill-306-Copy" fill="#9FA2A1"></path>
                            <path d="M10.0425352,1.18211268 L10.0425352,0.0314507042 L9.86901408,0.0889295775 C-0.216901408,3.4498169 3.77408451,28.2850282 3.94760563,29.3402535 L4.03978873,29.8754577 L5.10802817,29.6981408 L5.02126761,29.1629366 C4.97788732,28.9151268 1.0465493,4.50558451 10.0425352,1.18211268" id="Fill-307-Copy" fill="#9FA2A1"></path>
                            <path d="M24.7809859,20.2179225 C24.8623239,18.7050352 25.4425352,15.1874366 29.0647887,15.1874366 C32.6870423,15.1874366 33.261831,18.7055775 33.343169,20.2179225 C33.5383803,23.8043873 31.9007746,27.8843028 29.0647887,30.0679577 C26.2288028,27.8843028 24.5857746,23.8043873 24.7809859,20.2179225 Z M32.7846479,31.6057887 C31.7760563,31.4978803 30.8433803,31.1736127 29.9974648,30.6893803 C32.9419014,28.2259225 34.6283099,23.9415775 34.4276761,20.1599014 C34.2270423,16.4237746 32.1719014,14.1029296 29.0647887,14.1029296 C25.9522535,14.1029296 23.8971127,16.4237746 23.6964789,20.1599014 C23.4958451,23.9415775 25.1822535,28.2259225 28.1266901,30.6893803 C27.2807746,31.1736127 26.3480986,31.4978803 25.339507,31.6057887 C25.0412676,31.6377817 24.8243662,31.9051127 24.8569014,32.2028099 C24.8894366,32.4809859 25.1226056,32.6870423 25.3991549,32.6870423 L25.4533803,32.684331 C26.7764789,32.5422606 27.9857042,32.0753803 29.0647887,31.3785845 C30.1384507,32.0753803 31.3476761,32.5422606 32.6707746,32.684331 L32.725,32.6870423 C33.0015493,32.6870423 33.2347183,32.4809859 33.2672535,32.2028099 C33.2997887,31.9051127 33.0828873,31.6377817 32.7846479,31.6057887 Z" id="Fill-308-Copy" fill="#9FA2A1"></path>
                        </g>
                    </g>
                </g>
                <mask id="mask-4" fill="white">
                    <use xlink:href="#path-3"></use>
                </mask>
                <use id="Mask-Copy-3" stroke="#2286EA" stroke-width="2" xlink:href="#path-3"></use>
            </g>
        </g>
    </g>
</svg>