<?xml version="1.0" encoding="UTF-8"?>
<svg width="77px" height="78px" viewBox="0 0 77 78" version="1.1" xmlns="http://www.w3.org/2000/svg"
     xmlns:xlink="http://www.w3.org/1999/xlink">
    <!-- Generator: Sketch 51 (57462) - http://www.bohemiancoding.com/sketch -->
    <title>Family-Female</title>
    <desc>Created with Sketch.</desc>
    <defs>
        <path d="M76.6847244,38.4514961 C76.6847244,59.5543465 59.5773858,76.661685 38.4745354,76.661685 C17.3710787,76.661685 0.263740157,59.5543465 0.263740157,38.4514961 C0.263740157,17.3486457 17.3710787,0.240700787 38.4745354,0.240700787 C59.5773858,0.240700787 76.6847244,17.3486457 76.6847244,38.4514961"
              id="path-1"></path>
    </defs>
    <g id="Care-Circle" stroke="none" stroke-width="1" fill="none" fill-rule="evenodd">
        <g id="13.-MDx---Care-Circle---Illustrations" transform="translate(-399.000000, -133.000000)">
            <rect fill="#FFFFFF" x="0" y="0" width="605" height="1581"></rect>
            <g id="Family-Female" transform="translate(398.858575, 133.500000)">
                <mask id="mask-2" fill="white">
                    <use xlink:href="#path-1"></use>
                </mask>
                <g id="Mask"></g>
                <path d="M31.4548031,53.4343622 L32.1847874,56.7071654 C32.9262913,60.0315039 32.8753622,60.2418898 30.100937,61.6751811 C25.5912835,64.0045827 17.8009449,65.3269213 15.1168583,69.6480157 C14.1425354,71.2177244 14.0649291,73.1584882 14.0649291,76.3245827 C30.338,76.3245827 46.6110709,76.3245827 62.8835354,76.3245827 C62.8835354,73.1584882 62.8065354,71.2177244 61.8316063,69.6480157 C59.9023622,66.5425512 55.3357165,64.9855748 51.2450157,63.4904409 C49.6437795,62.9053622 48.1159055,62.3299843 46.8481339,61.6751811 C44.0737087,60.2418898 44.0221732,60.0315039 44.7642835,56.7071654 L45.4936614,53.4343622 C36.220315,48.5348583 40.7287559,48.5348583 31.4548031,53.4343622"
                      id="Fill-20" fill="#F5C097" mask="url(#mask-2)"></path>
                <path d="M48.3426614,62.37 C48.3426614,62.37 45.9253465,64.8018661 43.2455039,64.8303622 C40.5656614,64.8588583 34.4869055,60.574748 31.9834961,55.8055984 L31.0655591,51.9325591 L40.4674409,47.9115827 L47.0379055,51.7627953 L45.4936614,53.4343622 L44.3774646,58.7710079 C44.3774646,58.7710079 43.9688189,60.201874 45.9471732,61.1955984 C47.9267402,62.1893228 48.3426614,62.37 48.3426614,62.37"
                      id="Fill-22" fill="#C89D7F" mask="url(#mask-2)"></path>
                <path d="M26.0896614,34.4881181 C25.8289528,34.4820551 23.9360866,32.1417402 22.6664961,33.8757559 C21.3975118,35.6109843 23.4831811,44.5157008 26.4176693,44.3368425 C26.4176693,44.3368425 28.1207638,39.7350315 26.0896614,34.4881181"
                      id="Fill-23" fill="#F5C097" mask="url(#mask-2)"></path>
                <path d="M30.4841181,53.2470157 C36.7368819,60.0187717 40.2024882,60.0187717 46.455252,53.2470157 C51.3662756,47.9285591 50.7872598,42.2632992 51.0576693,35.3393622 C51.174685,32.3424252 50.9224646,29.4740236 50.0506063,27.1464409 C46.4934488,17.6566457 30.4459213,17.6566457 26.8881575,27.1464409 C26.0162992,29.4740236 25.7640787,32.3424252 25.8817008,35.3393622 C26.1521102,42.2632992 25.5730945,47.9285591 30.4841181,53.2470157"
                      id="Fill-24" fill="#F5C097" mask="url(#mask-2)"></path>
                <path d="M46.3467244,22.3942677 C46.3467244,22.3942677 43.1466772,27.7254567 34.5032756,30.5592992 C25.859874,33.3931417 25.3275433,43.9857953 25.3275433,43.9857953 C25.3275433,43.9857953 21.7285512,40.8803307 20.984622,35.3381496 C18.8922835,19.7611102 28.9920157,11.4602677 38.9080394,11.4226772 C52.5800866,11.3705354 57.5274882,24.9698268 55.1889921,36.3239921 C54.6887953,38.7540394 54.0442992,41.2047008 53.3931339,41.8194882 C52.0047087,43.1333386 51.0285669,34.4881181 51.0285669,34.4881181 C51.0285669,34.4881181 44.5278268,28.2935591 46.3467244,22.3942677"
                      id="Fill-25" fill="#533F2F" mask="url(#mask-2)"></path>
                <path d="M50.8054488,34.4881181 C51.0661575,34.4820551 52.9596299,32.1417402 54.2280079,33.8757559 C55.4975984,35.6109843 53.4119291,44.5157008 50.4774409,44.3368425 C50.4774409,44.3368425 48.7743465,39.7350315 50.8054488,34.4881181"
                      id="Fill-26" fill="#F5C097" mask="url(#mask-2)"></path>
                <path d="M26.5377165,63.1830472 C25.373622,63.6165512 24.1513228,64.0470236 22.9472126,64.5102362 L22.9472126,76.3245827 L54.2267953,76.3245827 L54.2267953,64.5975433 C52.9499291,64.1009843 51.6475984,63.6444409 50.410748,63.1836535 C48.7798031,68.2189685 44.0518819,71.8610079 38.4745354,71.8610079 C32.8965827,71.8610079 28.1680551,68.2189685 26.5377165,63.1830472"
                      id="Fill-27" fill="#313344" mask="url(#mask-2)"></path>
                <path d="M29.26,51.7658268 C29.26,51.7658268 29.4625039,59.5015984 23.6286929,63.9190945 C17.7948819,68.3371969 17.1716063,76.3245827 17.1716063,76.3245827 L31.3317244,76.3245827 C31.3317244,76.3245827 34.3207795,59.4779528 31.693685,54.5056929 L29.26,51.7658268"
                      id="Fill-28" fill="#533F2F" mask="url(#mask-2)"></path>
                <path d="M76.6847244,38.4514961 C76.6847244,59.5543465 59.5773858,76.661685 38.4745354,76.661685 C17.3710787,76.661685 0.263740157,59.5543465 0.263740157,38.4514961 C0.263740157,17.3486457 17.3710787,0.240700787 38.4745354,0.240700787 C59.5773858,0.240700787 76.6847244,17.3486457 76.6847244,38.4514961"
                      id="Fill-8-Copy" stroke="#2286EA" stroke-width="4" mask="url(#mask-2)"></path>
            </g>
        </g>
    </g>
</svg>