<?xml version="1.0" encoding="UTF-8"?>
<svg width="77px" height="77px" viewBox="0 0 77 77" version="1.1" xmlns="http://www.w3.org/2000/svg"
     xmlns:xlink="http://www.w3.org/1999/xlink">
    <!-- Generator: Sketch 51 (57462) - http://www.bohemiancoding.com/sketch -->
    <title>Family - male</title>
    <desc>Created with Sketch.</desc>
    <defs>
        <path d="M76.4512992,38.2107953 C76.4512992,59.3136457 59.3433543,76.4209843 38.2405039,76.4209843 C17.1376535,76.4209843 0.0303149606,59.3136457 0.0303149606,38.2107953 C0.0303149606,17.1073386 17.1376535,0 38.2405039,0 C59.3433543,0 76.4512992,17.1073386 76.4512992,38.2107953"
              id="path-1"></path>
    </defs>
    <g id="Care-Circle" stroke="none" stroke-width="1" fill="none" fill-rule="evenodd">
        <g id="13.-MDx---Care-Circle---Illustrations" transform="translate(-114.000000, -133.000000)">
            <rect fill="#FFFFFF" x="0" y="0" width="605" height="1581"></rect>
            <g id="Family---male" transform="translate(114.500000, 133.500000)">
                <mask id="mask-2" fill="white">
                    <use xlink:href="#path-1"></use>
                </mask>
                <use id="Mask" fill="#FFFFFF" xlink:href="#path-1"></use>
                <path d="M46.0308425,54.6008819 C45.6937402,56.1099606 45.3208661,59.4985669 45.9138268,61.0955591 C46.1345197,61.689126 57.6087323,66.090252 58.9692677,66.6334961 C61.8134173,67.7690945 64.3186457,68.9374331 65.3869449,70.1021339 C66.5971181,71.4220472 67.5053543,73.725378 67.5053543,76.7950709 C44.2950079,76.7950709 32.1459843,76.7950709 8.97565354,76.7950709 C8.97565354,73.725378 9.88388976,71.4220472 11.094063,70.1021339 C12.1629685,68.9374331 14.6669843,67.7690945 17.5123465,66.6334961 C18.8722756,66.090252 30.3464882,61.689126 30.5671811,61.0955591 C31.160748,59.4985669 30.7866614,56.1099606 30.4507717,54.6008819 C39.7592835,49.6825827 36.6526063,49.6455984 46.0308425,54.6008819"
                      id="Fill-72" fill="#F5C097" mask="url(#mask-2)"></path>
                <path d="M48.941685,62.6113071 C48.941685,62.6113071 45.7555827,67.1367244 43.2667244,67.4101654 C39.5361654,67.8200236 38.6576378,66.5734724 36.1912126,64.1337244 C34.1328268,62.0971654 31.6427559,59.3906457 30.8400157,57.5092992 C30.8400157,57.5092992 30.408937,53.8078425 30.1354961,53.1791102 C29.8620551,52.5497717 37.0582205,49.8784173 37.0582205,49.8784173 L44.3332047,49.7413937 L46.0308425,54.6008819 C46.0308425,54.6008819 45.1147244,59.1572205 45.9138268,61.0955591 L48.941685,62.6113071"
                      id="Fill-74" fill="#C89E80" mask="url(#mask-2)"></path>
                <path d="M26.1339213,44.1889055 C26.1339213,44.1889055 23.9233543,44.8679606 22.3306063,43.0011654 C20.7378583,41.1337638 17.8348976,32.4327638 24.6205984,33.642937 L26.1339213,44.1889055"
                      id="Fill-75" fill="#F5C097" mask="url(#mask-2)"></path>
                <path d="M49.7692835,44.4059606 C49.7692835,44.4059606 51.9798504,45.085622 53.5725984,43.2182205 C55.1653465,41.3508189 58.0689134,32.6504252 51.2832126,33.8605984 L49.7692835,44.4059606"
                      id="Fill-76" fill="#F5C097" mask="url(#mask-2)"></path>
                <path d="M45.7434567,56.092378 C39.0741654,63.2727795 37.0697402,63.2727795 30.3998425,56.092378 C25.9659764,51.3195906 25.2002205,46.3206535 24.8982835,40.4668346 C24.6248425,35.1580787 23.1582047,27.855811 26.0678346,24.3774724 C30.6350866,18.9195669 45.5082126,18.9195669 50.0754646,24.3774724 C52.9857008,27.855811 51.519063,35.1580787 51.2450157,40.4668346 C50.9424724,46.3206535 50.1779291,51.3195906 45.7434567,56.092378"
                      id="Fill-77" fill="#F5C097" mask="url(#mask-2)"></path>
                <path d="M23.8493858,38.7473701 L25.5949213,38.7473701 L24.9977165,30.378622 C24.9977165,30.378622 23.6280866,21.258063 39.6089213,21.7521969 C39.6089213,21.7521969 49.8905433,22.0165433 51.0419055,29.2557559 L50.9667244,38.3375118 L52.2387402,38.4193622 L53.5204567,33.8690866 C53.5204567,33.8690866 54.817937,28.798 53.4264803,23.7632913 C51.1352756,15.4727559 43.4595276,12.812315 35.8650236,13.5744331 C28.2104961,14.3426142 23.5904961,18.6697717 22.4003307,25.7792362 C21.8849764,28.8616614 22.2602756,32.7504646 23.8493858,38.7473701"
                      id="Fill-78" fill="#533F2F" mask="url(#mask-2)"></path>
                <path d="M48.4439134,62.3621181 C51.9598425,63.8936299 58.0034331,66.2478898 58.9692677,66.6334961 C61.8134173,67.7684882 64.3186457,68.9374331 65.3869449,70.1021339 C66.5971181,71.4220472 67.5053543,73.725378 67.5053543,76.7950709 C44.2950079,76.7950709 32.1459843,76.7950709 8.97565354,76.7950709 C8.97565354,73.725378 9.88388976,71.4220472 11.094063,70.1021339 C12.1629685,68.9374331 14.6669843,67.7690945 17.5123465,66.6334961 C18.4842441,66.2454646 24.6187795,63.8881732 28.123189,62.3572677 C29.9172283,66.5625591 33.796937,69.4752205 38.2823386,69.4752205 C42.7671339,69.4752205 46.6450236,66.5516457 48.4439134,62.3621181"
                      id="Fill-79" fill="#C4E3D6" mask="url(#mask-2)"></path>
                <path d="M76.4512992,38.2107953 C76.4512992,59.3136457 59.3433543,76.4209843 38.2405039,76.4209843 C17.1376535,76.4209843 0.0303149606,59.3136457 0.0303149606,38.2107953 C0.0303149606,17.1073386 17.1376535,0 38.2405039,0 C59.3433543,0 76.4512992,17.1073386 76.4512992,38.2107953"
                      id="Fill-6-Copy" stroke="#2286EA" stroke-width="4" mask="url(#mask-2)"></path>
            </g>
        </g>
    </g>
</svg>