<?xml version="1.0" encoding="UTF-8"?>
<svg width="77px" height="77px" viewBox="0 0 77 77" version="1.1" xmlns="http://www.w3.org/2000/svg" xmlns:xlink="http://www.w3.org/1999/xlink">
    <!-- Generator: Sketch 51 (57462) - http://www.bohemiancoding.com/sketch -->
    <title>Group 12 Copy</title>
    <desc>Created with Sketch.</desc>
    <defs>
        <path d="M76.4512992,38.7206929 C76.4512992,59.8235433 59.3433543,76.9308819 38.2405039,76.9308819 C17.1376535,76.9308819 0.0303149606,59.8235433 0.0303149606,38.7206929 C0.0303149606,17.6178425 17.1376535,0.509897638 38.2405039,0.509897638 C59.3433543,0.509897638 76.4512992,17.6178425 76.4512992,38.7206929" id="path-1"></path>
    </defs>
    <g id="Care-Circle" stroke="none" stroke-width="1" fill="none" fill-rule="evenodd">
        <g id="13.-MDx---Care-Circle---Illustrations" transform="translate(-114.000000, -1013.000000)">
            <rect fill="#FFFFFF" x="0" y="0" width="605" height="1581"></rect>
            <g id="Group-12-Copy" transform="translate(114.500000, 1012.500000)">
                <mask id="mask-2" fill="white">
                    <use xlink:href="#path-1"></use>
                </mask>
                <g id="Mask"></g>
                <path d="M46.8917874,55.0355984 C46.5474094,56.5804488 46.1654409,60.0466614 46.7729528,61.6812441 C46.9984961,62.2887559 58.738874,66.7923465 60.130937,67.3477165 C63.0417795,68.5093858 65.6046063,69.7056142 66.6983701,70.8975984 C67.9364331,72.2478268 68.8652835,74.6051181 68.8652835,77.7463543 C45.1153307,77.7463543 32.6849843,77.7463543 8.97565354,77.7463543 C8.97565354,74.6051181 9.90511024,72.2478268 11.1431732,70.8975984 C12.236937,69.7056142 14.7997638,68.5093858 17.71,67.3477165 C19.1026693,66.7923465 30.8430472,62.2887559 31.0685906,61.6812441 C31.6761024,60.0466614 31.2935276,56.5804488 30.9497559,55.0355984 C40.4747165,50.003315 37.2958898,49.9657244 46.8917874,55.0355984" id="Fill-30" fill="#F5C097" mask="url(#mask-2)"></path>
                <path d="M49.8705354,63.2321575 C49.8705354,63.2321575 46.6104646,67.8630709 44.0640079,68.1425748 C40.246748,68.5621339 39.347,67.2864803 36.824189,64.7903465 C34.7179055,62.7064961 32.1696299,59.9375276 31.3480945,58.0119213 C31.3480945,58.0119213 30.907315,54.2243701 30.6272047,53.5810866 C30.3477008,52.9371969 37.7105984,50.2033937 37.7105984,50.2033937 L45.1553465,50.0633386 L46.8917874,55.0355984 C46.8917874,55.0355984 45.9550551,59.6980394 46.7729528,61.6812441 L49.8705354,63.2321575" id="Fill-32" fill="#C89E80" mask="url(#mask-2)"></path>
                <path d="M26.3109606,45.0486378 C26.3109606,45.0486378 24.0488583,45.7434567 22.419126,43.8330079 C20.7893937,41.9219528 17.8185276,33.0190551 24.7624724,34.2571181 L26.3109606,45.0486378" id="Fill-33" fill="#F5C097" mask="url(#mask-2)"></path>
                <path d="M51.1619528,45.0486378 C51.1619528,45.0486378 53.4240551,45.7434567 55.0537874,43.8330079 C56.6829134,41.9219528 59.6543858,33.0190551 52.7104409,34.2571181 L51.1619528,45.0486378" id="Fill-34" fill="#F5C097" mask="url(#mask-2)"></path>
                <path d="M46.5983386,56.5622598 C39.7738346,63.9087874 37.7227244,63.9087874 30.8976142,56.5622598 C26.3606772,51.6785197 25.5779449,46.5631732 25.2687323,40.5735433 C24.988622,35.1411024 23.4880315,27.6690709 26.4649606,24.1107008 C31.1389213,18.5254724 46.3570315,18.5254724 51.0309921,24.1107008 C54.0085276,27.6690709 52.5073307,35.1411024 52.2278268,40.5735433 C51.9186142,46.5631732 51.1352756,51.6785197 46.5983386,56.5622598" id="Fill-35" fill="#F5C097" mask="url(#mask-2)"></path>
                <path d="M24.1440472,39.802937 L25.2171969,39.802937 C25.2171969,39.802937 23.1782126,27.9225039 26.8723937,26.0332756 C26.8723937,26.0332756 29.2745512,23.4413465 35.4127244,25.0280315 C41.5515039,26.6147165 50.3810394,39.7186614 53.3616063,39.7604961 C53.3616063,39.7604961 54.1061417,39.6343858 55.0404488,34.6390866 C58.1101417,18.2271732 49.2023937,10.6854173 33.0281496,12.4964331 C33.0281496,12.4964331 23.9670079,14.1546614 24.3119921,22.2554252 C24.3119921,22.2554252 21.3417323,22.5925276 21.9189291,28.4263386 C22.496126,34.2601496 24.1440472,39.802937 24.1440472,39.802937" id="Fill-36" fill="#6C332D" mask="url(#mask-2)"></path>
                <path d="M46.4746535,58.335685 C46.4134173,59.5961811 46.4698031,60.866378 46.7729528,61.6812441 C46.9984961,62.2887559 58.738874,66.7923465 60.130937,67.3477165 C63.0417795,68.5093858 65.6046063,69.7056142 66.6983701,70.8975984 C67.9364331,72.2478268 68.8652835,74.6051181 68.8652835,77.7463543 C45.1153307,77.7463543 32.6849843,77.7463543 8.97565354,77.7463543 C8.97565354,74.6051181 9.90511024,72.2478268 11.1431732,70.8975984 C12.236937,69.7056142 14.7997638,68.5093858 17.71,67.3477165 C19.1026693,66.7923465 30.8430472,62.2887559 31.0685906,61.6812441 C31.3359685,60.9621732 31.4117559,59.8884173 31.3832598,58.7794961 C33.1591102,60.8857795 35.8019685,62.2214567 38.7522205,62.2214567 C41.9049764,62.2214567 44.7060787,60.6960079 46.4746535,58.335685" id="Fill-37" fill="#313344" mask="url(#mask-2)"></path>
                <path d="M28.3608583,77.7463543 L8.97565354,77.7463543 C8.97565354,74.6051181 9.90511024,72.2478268 11.1431732,70.8975984 C12.236937,69.7056142 14.7997638,68.5093858 17.71,67.3477165 C18.2702205,67.1245984 20.5505118,66.2351575 23.0848425,65.2159685 L28.3608583,77.7463543" id="Fill-38" fill="#CDCECA" mask="url(#mask-2)"></path>
                <polyline id="Fill-39" fill="#E5E6E3" mask="url(#mask-2)" points="21.0373701 66.0447795 25.7810551 77.7463543 28.3608583 77.7463543 23.0921181 65.231126 21.0373701 66.0447795"></polyline>
                <path d="M49.4800787,77.7463543 L68.8652835,77.7463543 C68.8652835,74.6051181 67.9364331,72.2478268 66.6983701,70.8975984 C65.6046063,69.7056142 63.0417795,68.5093858 60.130937,67.3477165 C59.5719291,67.1245984 57.2904252,66.2351575 54.7560945,65.2159685 L49.4800787,77.7463543" id="Fill-40" fill="#CDCECA" mask="url(#mask-2)"></path>
                <polyline id="Fill-41" fill="#E5E6E3" mask="url(#mask-2)" points="56.8035669 66.0447795 52.0598819 77.7463543 49.4800787 77.7463543 54.7494252 65.231126 56.8035669 66.0447795"></polyline>
                <path d="M76.4512992,38.7206929 C76.4512992,59.8235433 59.3433543,76.9308819 38.2405039,76.9308819 C17.1376535,76.9308819 0.0303149606,59.8235433 0.0303149606,38.7206929 C0.0303149606,17.6178425 17.1376535,0.509897638 38.2405039,0.509897638 C59.3433543,0.509897638 76.4512992,17.6178425 76.4512992,38.7206929" id="Fill-4-Copy" stroke="#2286EA" stroke-width="4" mask="url(#mask-2)"></path>
            </g>
        </g>
    </g>
</svg>