<?xml version="1.0" encoding="UTF-8"?>
<svg width="78px" height="77px" viewBox="0 0 78 77" version="1.1" xmlns="http://www.w3.org/2000/svg" xmlns:xlink="http://www.w3.org/1999/xlink">
    <!-- Generator: Sketch 51 (57462) - http://www.bohemiancoding.com/sketch -->
    <title>Group 6</title>
    <desc>Created with Sketch.</desc>
    <defs>
        <path d="M76.4209843,38.2107953 C76.4209843,59.3136457 59.3136457,76.4209843 38.2107953,76.4209843 C17.1073386,76.4209843 0,59.3136457 0,38.2107953 C0,17.1073386 17.1073386,0 38.2107953,0 C59.3136457,0 76.4209843,17.1073386 76.4209843,38.2107953" id="path-1"></path>
    </defs>
    <g id="Care-Circle" stroke="none" stroke-width="1" fill="none" fill-rule="evenodd">
        <g id="13.-MDx---Care-Circle---Illustrations" transform="translate(-398.000000, -1012.000000)">
            <rect fill="#FFFFFF" x="0" y="0" width="605" height="1581"></rect>
            <g id="Group-6" transform="translate(398.858575, 1012.500000)">
                <mask id="mask-2" fill="white">
                    <use xlink:href="#path-1"></use>
                </mask>
                <g id="Mask"></g>
                <path d="M16.8478425,48.2153386 C15.8304724,42.1941811 15.3139055,28.0589213 22.2275354,19.268189 C25.6034094,14.9749843 30.7527087,11.9562205 38.4793858,11.7797874 C58.0204094,11.3347638 61.4890472,35.4163622 58.9856378,47.7121102 C56.6137953,59.360937 18.6200551,58.704315 16.8478425,48.2153386" id="Fill-60" fill="#6C332D" mask="url(#mask-2)"></path>
                <path d="M30.8072756,52.6013071 L31.5772756,56.0529685 C32.3587953,59.5591969 32.3054409,59.7811024 29.3794409,61.292 C24.6230236,63.7493307 16.4064567,65.1444252 13.5756457,69.7019764 C12.5473622,71.3571732 12.4661181,73.4040394 12.4661181,76.7429291 C29.6292362,76.7429291 46.7923543,76.7429291 63.9548661,76.7429291 C63.9548661,73.4040394 63.8730157,71.3571732 62.8459449,69.7019764 C60.0145276,65.1444252 51.7979606,63.7493307 47.0421496,61.292 C44.1155433,59.7811024 44.062189,59.5591969 44.844315,56.0529685 L45.614315,52.6013071 C35.8334961,47.4338189 40.5880945,47.4338189 30.8072756,52.6013071" id="Fill-62" fill="#F5C097" mask="url(#mask-2)"></path>
                <path d="M48.6191339,62.025622 C48.6191339,62.025622 46.0690394,64.5902677 43.2430787,64.6199764 C40.4165118,64.6502913 34.0048976,60.1315433 31.3650709,55.1022913 L30.396811,51.0170472 L40.3128346,46.7759843 L47.2422283,50.838189 L45.614315,52.6013071 L44.4368819,58.2295827 C44.4368819,58.2295827 44.0058031,59.7386614 46.092685,60.7869528 C48.1795669,61.8346378 48.6191339,62.025622 48.6191339,62.025622" id="Fill-63" fill="#C89D7F" mask="url(#mask-2)"></path>
                <path d="M29.7832362,52.4036535 C36.3779528,59.545252 40.0333307,59.545252 46.6280472,52.4036535 C51.8076614,46.7941732 51.1965118,40.8190945 51.482685,33.5156142 C51.6063701,30.3549764 51.3402047,27.3295433 50.4204488,24.8752441 C46.6674567,14.8664567 29.7432205,14.8664567 25.9908346,24.8752441 C25.0710787,27.3295433 24.8049134,30.3549764 24.9285984,33.5156142 C25.2141654,40.8190945 24.603622,46.7941732 29.7832362,52.4036535" id="Fill-64" fill="#F5C097" mask="url(#mask-2)"></path>
                <path d="M20.8324409,41.8825433 C20.8324409,41.8825433 36.0426693,34.1322205 41.3580945,24.3053228 C41.3580945,24.3053228 48.6203465,39.2099764 54.7172913,41.3459685 L54.1643465,24.6630394 L44.5066063,16.7217323 L30.1264016,16.7217323 L19.037189,30.8157638 L20.8324409,41.8825433" id="Fill-65" fill="#6C332D" mask="url(#mask-2)"></path>
                <polygon id="Fill-66" fill="#E5E6E3" mask="url(#mask-2)" points="26.3346063 76.4209843 52.3606063 76.4209843 52.3606063 70.2355197 26.3346063 70.2355197"></polygon>
                <path d="M28.9780709,61.4932913 C28.0025354,61.9674173 26.9008898,62.4051654 25.7428583,62.838063 C21.1974331,64.5375197 15.7692362,66.1702835 13.576252,69.7019764 C12.5479685,71.3571732 12.4667244,73.4040394 12.4667244,76.7429291 L35.6558504,76.7429291 L28.9780709,61.4932913" id="Fill-67" fill="#504E58" mask="url(#mask-2)"></path>
                <path d="M47.4435197,61.4932913 C52.2472283,63.8287559 60.0927402,65.2699291 62.8459449,69.7019764 C63.8730157,71.3571732 63.9548661,73.4040394 63.9548661,76.7429291 L40.7657402,76.7429291 L47.4435197,61.4932913" id="Fill-68" fill="#504E58" mask="url(#mask-2)"></path>
                <polyline id="Fill-69" fill="#B44457" mask="url(#mask-2)" points="25.9774961 62.7337795 32.3442441 76.7429291 35.6558504 76.7429291 28.9780709 61.4932913 25.9774961 62.7337795"></polyline>
                <polyline id="Fill-70" fill="#B44457" mask="url(#mask-2)" points="50.4440945 62.7337795 44.0773465 76.7429291 40.7657402 76.7429291 47.4435197 61.4932913 50.4440945 62.7337795"></polyline>
                <path d="M76.4209843,38.2107953 C76.4209843,59.3136457 59.3136457,76.4209843 38.2107953,76.4209843 C17.1073386,76.4209843 0,59.3136457 0,38.2107953 C0,17.1073386 17.1073386,0 38.2107953,0 C59.3136457,0 76.4209843,17.1073386 76.4209843,38.2107953" id="Fill-9-Copy" stroke="#2286EA" stroke-width="4" mask="url(#mask-2)"></path>
            </g>
        </g>
    </g>
</svg>