<?xml version="1.0" encoding="UTF-8"?>
<svg width="80px" height="80px" viewBox="0 0 80 80" version="1.1" xmlns="http://www.w3.org/2000/svg" xmlns:xlink="http://www.w3.org/1999/xlink">
    <!-- Generator: Sketch 51 (57462) - http://www.bohemiancoding.com/sketch -->
    <title>Nurse_Male</title>
    <desc>Created with Sketch.</desc>
    <defs>
        <path d="M77.2412793,38.4314955 C77.2412793,59.656233 60.0351311,76.8623812 38.8103936,76.8623812 C17.5850462,76.8623812 0.378898054,59.656233 0.378898054,38.4314955 C0.378898054,17.2061482 17.5850462,0 38.8103936,0 C60.0351311,0 77.2412793,17.2061482 77.2412793,38.4314955" id="path-1"></path>
        <path d="M77.2412793,38.4314955 C77.2412793,59.656233 60.0351311,76.8623812 38.8103936,76.8623812 C17.5850462,76.8623812 0.378898054,59.656233 0.378898054,38.4314955 C0.378898054,17.2061482 17.5850462,0 38.8103936,0 C60.0351311,0 77.2412793,17.2061482 77.2412793,38.4314955" id="path-3"></path>
    </defs>
    <g id="Care-Circle" stroke="none" stroke-width="1" fill="none" fill-rule="evenodd">
        <g id="13.-MDx---Care-Circle---Illustrations" transform="translate(-113.000000, -722.000000)">
            <rect fill="#FFFFFF" x="0" y="0" width="605" height="1581"></rect>
            <g id="Nurse_Male" transform="translate(114.500000, 723.500000)">
                <mask id="mask-2" fill="white">
                    <use xlink:href="#path-1"></use>
                </mask>
                <use id="Mask" fill="#FFFFFF" xlink:href="#path-1"></use>
                <g id="Group-3" mask="url(#mask-2)">
                    <g transform="translate(11.387324, 9.218310)">
                        <polygon id="Fill-171-Copy-2" fill="#F2C9B2" points="21.1868492 69.9132887 33.6586802 69.9132887 33.6586802 44.7608592 21.1868492 44.7608592"></polygon>
                        <path d="M33.6586802,51.134507 L21.1868492,46.7769577 L21.1868492,45.8903732 L21.2492084,45.8903732 C23.2566309,47.2319085 25.4267295,48.0718592 27.4227647,48.0718592 C29.4182577,48.0718592 31.5883563,47.2319085 33.5963211,45.8903732 L33.6586802,45.8903732 L33.6586802,51.134507" id="Fill-172-Copy-2" fill="#E69F80"></path>
                        <path d="M47.7572718,69.4458662 C50.8226309,59.9325704 44.6913704,50.2940141 34.5696661,50.2940141 L27.4227647,60.8685 L20.2753211,50.2940141 C10.1541591,50.2940141 4.02289853,59.9325704 7.08825769,69.4458662 L9.69920839,71.3312817 C9.69920839,71.3312817 14.3685535,76.6518732 8.05780698,102.103627 L46.7877225,102.103627 C40.476976,76.6518732 45.1463211,71.3312817 45.1463211,71.3312817 L47.7572718,69.4458662" id="Fill-173-Copy" fill="#65BEAD"></path>
                        <path d="M27.4227647,63.1428639 L27.4227647,60.8685 L21.1746078,50.2313572 C19.7350833,50.2227298 18.3895373,50.3529745 17.13797,50.6220913 C17.8861894,51.472462 21.3144544,55.6460528 27.4227647,63.1428639 Z" id="Fill-178-Copy" fill="#E5E6E3"></path>
                        <path d="M37.6731113,63.1428639 L37.6731113,60.8685 L31.4568308,50.2313572 C30.0246504,50.2227298 28.6859691,50.3529745 27.4407869,50.6220913 C28.1851891,51.472462 31.5959639,55.6460528 37.6731113,63.1428639 Z" id="Fill-178-Copy-2" fill="#E5E6E3" transform="translate(32.556949, 56.686910) scale(-1, 1) translate(-32.556949, -56.686910) "></path>
                        <path d="M43.7299549,85.1826056 L40.1131239,65.2195423 L44.1800253,73.614169 C43.6426521,75.620507 43.1828211,79.1831127 43.7299549,85.1826056" id="Fill-196-Copy" fill="#E5E6E3"></path>
                        <path d="M11.3254267,82.000662 C11.4837647,77.8762817 11.0998492,75.2365915 10.6655042,73.614169 L14.7324056,65.2195423 L11.7142225,81.8775704 L11.3254267,82.000662" id="Fill-199-Copy" fill="#E5E6E3"></path>
                        <path d="M10.2723704,77.4706761 L0.271588671,74.927507 C3.14227881,63.0272113 9.15673216,55.3562824 10.3716028,54.3061479 C13.1217691,58.4044395 14.4968523,61.2988329 14.4968523,62.9893281 C14.4968523,69.4395124 10.8534509,67.6771098 8.65298612,76.7988985" id="Fill-204-Copy" fill="#E5E6E3"></path>
                        <path d="M50.3991309,77.4706761 L40.3983492,74.927507 C43.2690394,63.0272113 49.2834927,55.3562824 50.4983633,54.3061479 C53.2485297,58.4044395 54.6236129,61.2988329 54.6236129,62.9893281 C54.6236129,69.4395124 50.9802115,67.6771098 48.7797467,76.7988985" id="Fill-204-Copy-2" fill="#E5E6E3" transform="translate(47.510981, 65.888412) scale(-1, 1) translate(-47.510981, -65.888412) "></path>
                        <path d="M27.4227647,6.86059155 C21.4330323,6.86059155 13.8664267,14.4271972 13.8664267,20.4169296 L13.8664267,34.5155211 C13.8664267,40.5052535 21.4330323,48.0718592 27.4227647,48.0718592 C33.4119549,48.0718592 40.9791028,40.5052535 40.9791028,34.5155211 L40.9791028,20.4169296 C40.9791028,14.4271972 33.4119549,6.86059155 27.4227647,6.86059155" id="Fill-206-Copy-2" fill="#EAB093"></path>
                        <path d="M42.2479887,11.4751759 C42.2479887,11.4751759 38.9337352,2.7340491 27.5382775,2.74380966 C16.1428197,2.7340491 12.8285662,11.4751759 12.8285662,11.4751759 C10.2756366,17.4909364 10.9887,25.7543378 13.9976648,33.4510843 C14.0535169,33.5823097 14.1120803,33.7102815 14.1706437,33.8387956 C14.0453831,33.2260491 13.9542845,32.5997463 13.9049394,31.9620561 C13.9418127,29.4937181 13.9054817,24.894866 14.2194465,25.1779223 C16.5180592,22.1201547 17.063024,16.7832956 17.063024,16.7832956 C17.063024,16.7832956 21.8787775,17.817373 27.5382775,18.0570491 C33.1972352,17.817373 38.0129887,16.7832956 38.0129887,16.7832956 C38.0129887,16.7832956 38.5584958,22.1201547 40.8571085,25.1779223 C41.1710732,24.894866 41.1342,29.4937181 41.1716155,31.9620561 C41.1217282,32.5997463 41.0306296,33.2260491 40.9059113,33.8387956 C40.9644747,33.7102815 41.023038,33.5823097 41.0783479,33.4510843 C44.0878549,25.7543378 44.8003761,17.4909364 42.2479887,11.4751759" id="Fill-144-Copy" fill="#2D2119"></path>
                        <path d="M13.8664267,26.0563662 C12.3687225,26.0563662 11.1551591,27.2704718 11.1551591,28.7676338 L11.1551591,31.5873521 C11.1551591,33.0845141 12.3687225,34.2986197 13.8664267,34.2986197 C15.3635887,34.2986197 16.5776943,33.0845141 16.5776943,31.5873521 L16.5776943,28.7676338 C16.5776943,27.2704718 15.3635887,26.0563662 13.8664267,26.0563662" id="Fill-208-Copy-2" fill="#EAB093"></path>
                        <path d="M40.9791028,26.0563662 C39.4813985,26.0563662 38.2678352,27.2704718 38.2678352,28.7676338 L38.2678352,31.5873521 C38.2678352,33.0845141 39.4813985,34.2986197 40.9791028,34.2986197 C42.4762647,34.2986197 43.6903704,33.0845141 43.6903704,31.5873521 L43.6903704,28.7676338 C43.6903704,27.2704718 42.4762647,26.0563662 40.9791028,26.0563662" id="Fill-209-Copy" fill="#F2C9B2"></path>
                        <path d="M39.743307,39.0823803 C40.5214408,37.5553944 40.9791028,35.9877394 40.9791028,34.5155211 L40.9791028,34.2986197 C42.4762647,34.2986197 43.6903704,33.0845141 43.6903704,31.5873521 L43.6903704,28.7676338 L43.6903704,31.5873521 C43.6903704,33.0845141 42.4762647,34.2986197 40.9791028,34.2986197 L40.9791028,34.5155211 C40.9791028,35.9877394 40.5214408,37.5553944 39.743307,39.0823803 M43.6903704,28.7676338 C43.6903704,28.7632958 43.6903704,28.7589577 43.6898281,28.7546197 C43.6903704,28.7589577 43.6903704,28.7632958 43.6903704,28.7676338" id="Fill-211-Copy" fill="#201713"></path>
                        <path d="M27.4227647,48.0718592 L27.4227647,38.040169 L24.7114971,37.4979155 C24.7114971,37.4979155 25.4446239,33.0281197 27.4227647,28.8218592 L27.4227647,20.7498732 C28.3467647,21.4005775 29.3146873,21.9645211 30.3032154,22.4059155 C30.3032154,22.4059155 30.3032154,22.4059155 30.3037577,22.4059155 C28.9969267,21.1202324 28.150469,19.6697042 27.9276028,18.3352183 C30.1969337,20.9152606 33.8826309,23.0951197 37.5710394,24.0375563 C36.316807,22.9964296 35.3450887,21.8029296 34.7876521,20.6186479 C34.7947013,20.6246127 34.8022929,20.6311197 34.8093422,20.6370845 C34.8120535,20.6392535 34.8147647,20.6419648 34.817476,20.6435915 C34.8223563,20.6479296 34.8266943,20.6517254 34.8315746,20.6555211 C34.8348281,20.6582324 34.8380816,20.6609437 34.8413352,20.6636549 C34.8451309,20.6669085 34.8489267,20.670162 34.8527225,20.6734155 C34.8570605,20.676669 34.8608563,20.6799225 34.8646521,20.6831761 C34.8673633,20.6853451 34.8695323,20.6875141 34.8722436,20.6896831 C36.475145,22.015493 38.6550042,22.9893803 40.7052647,23.3461831 C40.8549267,24.2707254 40.9335535,25.1844225 40.9639197,26.0563662 C39.4732647,26.0645 38.2678352,27.2753521 38.2678352,28.7676338 L38.2678352,31.5873521 C38.2678352,33.0845141 39.4813985,34.2986197 40.9791028,34.2986197 L40.9791028,34.5155211 C40.9791028,35.9877394 40.5214408,37.5553944 39.743307,39.0823803 C37.3546802,43.767993 31.9397366,48.0718592 27.4227647,48.0718592 M34.2020182,27.5822676 C34.1765323,27.5822676 34.1515887,27.5828099 34.1261028,27.5833521 C32.9439901,27.6251056 32.0194478,28.6163451 32.0606591,29.7984577 C32.1007859,30.9550845 33.0513563,31.8649859 34.199307,31.8649859 C34.2247929,31.8649859 34.2502788,31.8649859 34.2757647,31.8639014 C35.4573352,31.8226901 36.3824197,30.8309085 36.3406661,29.6487958 C36.3005394,28.492169 35.349969,27.5822676 34.2020182,27.5822676" id="Fill-212-Copy-2" fill="#EAB093"></path>
                        <path d="M40.9639197,26.0563662 C40.9335535,25.1844225 40.8549267,24.2707254 40.7052647,23.3461831 C40.7963633,23.3624507 40.8880042,23.3770915 40.9791028,23.3906479 L40.9791028,26.0563662 C40.9736802,26.0563662 40.9687999,26.0563662 40.9639197,26.0563662" id="Fill-213-Copy" fill="#2B1E17"></path>
                        <path d="M40.9791028,34.2986197 C39.4813985,34.2986197 38.2678352,33.0845141 38.2678352,31.5873521 L38.2678352,28.7676338 C38.2678352,27.2753521 39.4732647,26.0645 40.9639197,26.0563662 C40.9687999,26.0563662 40.9736802,26.0563662 40.9791028,26.0563662 C41.1005675,26.0563662 41.2171521,26.0764296 41.3348211,26.0921549 C42.4589126,26.2412746 43.3639337,27.0687535 43.6155394,28.1575986 C43.6600042,28.3506408 43.6887436,28.5491056 43.6898281,28.7546197 C43.6903704,28.7589577 43.6903704,28.7632958 43.6903704,28.7676338 L43.6903704,31.5873521 C43.6903704,33.0845141 42.4762647,34.2986197 40.9791028,34.2986197" id="Fill-214-Copy-2" fill="#EAB093"></path>
                        <path d="M37.5710394,24.0375563 C36.316807,22.9964296 35.3450887,21.8029296 34.7876521,20.6186479 C35.3450887,21.8029296 36.316807,22.9964296 37.5710394,24.0375563 M37.5710394,24.0375563 C33.8826309,23.0951197 30.1969337,20.9152606 27.9276028,18.3352183 C30.1969337,20.9152606 33.8831732,23.0951197 37.5710394,24.0375563 M40.9791028,23.3906479 C40.8880042,23.3770915 40.7963633,23.3624507 40.7052647,23.3461831 C38.6550042,22.9893803 36.475145,22.015493 34.8722436,20.6896831 C36.5472647,22.0751408 38.8496732,23.0642113 40.9791028,23.3781761 L40.9791028,23.3906479 M30.3032154,22.4059155 C29.3146873,21.9645211 28.3467647,21.4005775 27.4227647,20.7498732 L27.4227647,20.7487887 C28.347307,21.3989507 29.3152295,21.9645211 30.3032154,22.4059155 M34.8646521,20.6831761 C34.8608563,20.6799225 34.8570605,20.676669 34.8527225,20.6734155 C34.8570605,20.676669 34.8608563,20.6799225 34.8646521,20.6831761 M34.8413352,20.6636549 C34.8380816,20.6609437 34.8348281,20.6582324 34.8315746,20.6555211 C34.8348281,20.6582324 34.8380816,20.6609437 34.8413352,20.6636549 M34.817476,20.6435915 C34.8147647,20.6419648 34.8120535,20.6392535 34.8093422,20.6370845 C34.8120535,20.6392535 34.8147647,20.6414225 34.817476,20.6435915" id="Fill-215-Copy" fill="#2B1E17"></path>
                        <path d="M37.0553563,14.8702183 C30.781483,12.9208169 24.0635042,12.9208169 17.7896309,14.8702183 C16.3553704,10.7230634 14.8668844,6.59326056 13.3247154,2.48243662 C22.4877154,-0.494535211 32.357814,-0.494535211 41.5202718,2.48243662 C39.978645,6.59326056 38.4901591,10.7230634 37.0553563,14.8702183" id="Fill-224-Copy" fill="#65BEAD"></path>
                        <polyline id="Fill-225-Copy" fill="#FFFFFF" points="31.4896661 5.41494366 28.9866239 5.41494366 28.9866239 2.91244366 25.8583633 2.91244366 25.8583633 5.41494366 23.3558633 5.41494366 23.3558633 8.54320423 25.8583633 8.54320423 25.8583633 11.0462465 28.9866239 11.0462465 28.9866239 8.54320423 31.4896661 8.54320423 31.4896661 5.41494366"></polyline>
                    </g>
                </g>
                <mask id="mask-4" fill="white">
                    <use xlink:href="#path-3"></use>
                </mask>
                <use id="Mask-Copy-2" stroke="#2286EA" stroke-width="2" xlink:href="#path-3"></use>
            </g>
        </g>
    </g>
</svg>