<?xml version="1.0" encoding="UTF-8"?>
<svg width="79px" height="80px" viewBox="0 0 79 80" version="1.1" xmlns="http://www.w3.org/2000/svg" xmlns:xlink="http://www.w3.org/1999/xlink">
    <!-- Generator: Sketch 51 (57462) - http://www.bohemiancoding.com/sketch -->
    <title>Nurse_female</title>
    <desc>Created with Sketch.</desc>
    <defs>
        <path d="M77.064585,38.4314955 C77.064585,59.656233 59.8584368,76.8623812 38.6336993,76.8623812 C17.4083519,76.8623812 0.202203749,59.656233 0.202203749,38.4314955 C0.202203749,17.2061482 17.4083519,0 38.6336993,0 C59.8584368,0 77.064585,17.2061482 77.064585,38.4314955" id="path-1"></path>
        <path d="M77.064585,38.4314955 C77.064585,59.656233 59.8584368,76.8623812 38.6336993,76.8623812 C17.4083519,76.8623812 0.202203749,59.656233 0.202203749,38.4314955 C0.202203749,17.2061482 17.4083519,0 38.6336993,0 C59.8584368,0 77.064585,17.2061482 77.064585,38.4314955" id="path-3"></path>
    </defs>
    <g id="Care-Circle" stroke="none" stroke-width="1" fill="none" fill-rule="evenodd">
        <g id="13.-MDx---Care-Circle---Illustrations" transform="translate(-397.000000, -722.000000)">
            <rect fill="#FFFFFF" x="0" y="0" width="605" height="1581"></rect>
            <g id="Nurse_female" transform="translate(397.858575, 723.500000)">
                <mask id="mask-2" fill="white">
                    <use xlink:href="#path-1"></use>
                </mask>
                <use id="Mask" fill="#FFFFFF" xlink:href="#path-1"></use>
                <g id="Group-2" mask="url(#mask-2)">
                    <g transform="translate(11.387324, 9.218310)">
                        <polygon id="Fill-171" fill="#F2C9B2" points="21.0101549 69.9132887 33.4819859 69.9132887 33.4819859 44.7608592 21.0101549 44.7608592"></polygon>
                        <path d="M33.4819859,51.134507 L21.0101549,46.7769577 L21.0101549,45.8903732 L21.0725141,45.8903732 C23.0799366,47.2319085 25.2500352,48.0718592 27.2460704,48.0718592 C29.2415634,48.0718592 31.411662,47.2319085 33.4196268,45.8903732 L33.4819859,45.8903732 L33.4819859,51.134507" id="Fill-172" fill="#E69F80"></path>
                        <path d="M47.5805775,69.4458662 C50.6459366,59.9325704 44.5146761,50.2940141 34.3929718,50.2940141 L27.2460704,60.8685 L20.0986268,50.2940141 C9.97746479,50.2940141 3.84620423,59.9325704 6.91156338,69.4458662 L9.52251408,71.3312817 C9.52251408,71.3312817 14.1918592,76.6518732 7.88111268,102.103627 L46.6110282,102.103627 C40.3002817,76.6518732 44.9696268,71.3312817 44.9696268,71.3312817 L47.5805775,69.4458662" id="Fill-173" fill="#65BEAD"></path>
                        <path d="M28.6017042,67.5951549 C28.6017042,68.344007 27.9943803,68.9507887 27.2460704,68.9507887 C26.4972183,68.9507887 25.8904366,68.344007 25.8904366,67.5951549 C25.8904366,66.8468451 26.4972183,66.2395211 27.2460704,66.2395211 C27.9943803,66.2395211 28.6017042,66.8468451 28.6017042,67.5951549" id="Fill-176" fill="#E5E6E3"></path>
                        <path d="M28.6575563,63.721838 C28.6575563,64.4706901 28.0502324,65.0774718 27.3019225,65.0774718 C26.5530704,65.0774718 25.9462887,64.4706901 25.9462887,63.721838 C25.9462887,62.9735282 26.5530704,62.3662042 27.3019225,62.3662042 C28.0502324,62.3662042 28.6575563,62.9735282 28.6575563,63.721838" id="Fill-177" fill="#E5E6E3"></path>
                        <path d="M20.6408803,50.2940141 C19.8085211,50.2940141 18.4859648,50.3672183 17.746331,50.4951901 C17.8715915,56.1302887 19.1523944,67.1000775 27.2460704,60.8685 L20.6408803,50.2940141" id="Fill-178" fill="#E5E6E3"></path>
                        <path d="M33.8512606,50.2940141 C34.6836197,50.2940141 36.0061761,50.3672183 36.7452676,50.4951901 C36.6205493,56.1302887 35.3397465,67.1000775 27.2460704,60.8685 L33.8512606,50.2940141" id="Fill-179" fill="#E5E6E3"></path>
                        <path d="M43.5532606,85.1826056 L39.9364296,65.2195423 L44.003331,73.614169 C43.4659577,75.620507 43.0061268,79.1831127 43.5532606,85.1826056" id="Fill-196" fill="#E5E6E3"></path>
                        <path d="M44.3959225,77.4706761 C42.1954577,68.3488873 38.0190211,63.672493 37.9772676,63.6264014 L44.970169,55.0343944 C45.5921338,55.6954014 51.5265563,63.0272113 54.3967042,74.927507 L44.3959225,77.4706761" id="Fill-197" fill="#E5E6E3"></path>
                        <path d="M11.1487324,82.000662 C11.3070704,77.8762817 10.9231549,75.2365915 10.4888099,73.614169 L14.5557113,65.2195423 L11.5375282,81.8775704 L11.1487324,82.000662" id="Fill-199" fill="#E5E6E3"></path>
                        <path d="M10.0956761,77.4706761 L0.0948943662,74.927507 C2.96558451,63.0272113 9.57294366,54.9671549 10.1949085,54.3061479 L16.4817958,63.6611056 L16.514331,63.6264014 C16.4725775,63.672493 12.2961408,68.3488873 10.0956761,77.4706761" id="Fill-204" fill="#E5E6E3"></path>
                        <path d="M49.1167817,31.9848239 C49.1167817,36.0777535 45.7987324,39.3958028 41.7058028,39.3958028 C37.6134155,39.3958028 34.2953662,36.0777535 34.2953662,31.9848239 C34.2953662,27.8918944 37.6134155,24.5743873 41.7058028,24.5743873 C45.7987324,24.5743873 49.1167817,27.8918944 49.1167817,31.9848239" id="Fill-205" fill="#211914"></path>
                        <path d="M27.2460704,6.86059155 C21.256338,6.86059155 13.6897324,14.4271972 13.6897324,20.4169296 L13.6897324,34.5155211 C13.6897324,40.5052535 21.256338,48.0718592 27.2460704,48.0718592 C33.2352606,48.0718592 40.8024085,40.5052535 40.8024085,34.5155211 L40.8024085,20.4169296 C40.8024085,14.4271972 33.2352606,6.86059155 27.2460704,6.86059155" id="Fill-206" fill="#EAB093"></path>
                        <path d="M27.2460704,2.74542958 C7.2694507,2.74542958 9.16733803,28.3088873 14.2477113,32.3681972 C14.2477113,32.3681972 9.58107746,12.6095634 27.2460704,12.6361338 C44.9110634,12.6095634 40.2438873,32.3681972 40.2438873,32.3681972 C45.3242606,28.3088873 47.2221479,2.74542958 27.2460704,2.74542958" id="Fill-207" fill="#2D2119"></path>
                        <path d="M13.6897324,26.0563662 C12.1920282,26.0563662 10.9784648,27.2704718 10.9784648,28.7676338 L10.9784648,31.5873521 C10.9784648,33.0845141 12.1920282,34.2986197 13.6897324,34.2986197 C15.1868944,34.2986197 16.401,33.0845141 16.401,31.5873521 L16.401,28.7676338 C16.401,27.2704718 15.1868944,26.0563662 13.6897324,26.0563662" id="Fill-208" fill="#EAB093"></path>
                        <path d="M40.8024085,26.0563662 C39.3047042,26.0563662 38.0911408,27.2704718 38.0911408,28.7676338 L38.0911408,31.5873521 C38.0911408,33.0845141 39.3047042,34.2986197 40.8024085,34.2986197 C42.2995704,34.2986197 43.5136761,33.0845141 43.5136761,31.5873521 L43.5136761,28.7676338 C43.5136761,27.2704718 42.2995704,26.0563662 40.8024085,26.0563662" id="Fill-209" fill="#F2C9B2"></path>
                        <path d="M37.3943451,24.0375563 C36.1401127,22.9964296 35.1683944,21.8029296 34.6109577,20.6186479 C36.688331,22.3766338 39.7840563,23.5354296 42.2941479,23.4942183 C38.9793521,18.6101408 40.393007,10.2165986 37.073331,8.41794366 C19.5373944,-1.08233803 14.4093028,14.6657887 14.4093028,14.6657887 C14.4093028,14.6657887 9.48726761,26.1886761 13.6897324,26.0563662 C16.3852746,25.9717746 19.859493,19.8893169 22.0057324,15.5366479 C23.9692324,18.2912958 26.943493,20.9841268 30.1265211,22.4059155 C28.8202324,21.1202324 27.9737746,19.6697042 27.7509085,18.3352183 C30.0202394,20.9152606 33.7059366,23.0951197 37.3943451,24.0375563" id="Fill-210" fill="#2D2119"></path>
                        <path d="M39.5666127,39.0823803 C40.3447465,37.5553944 40.8024085,35.9877394 40.8024085,34.5155211 L40.8024085,34.2986197 C42.2995704,34.2986197 43.5136761,33.0845141 43.5136761,31.5873521 L43.5136761,28.7676338 L43.5136761,31.5873521 C43.5136761,33.0845141 42.2995704,34.2986197 40.8024085,34.2986197 L40.8024085,34.5155211 C40.8024085,35.9877394 40.3447465,37.5553944 39.5666127,39.0823803 M43.5136761,28.7676338 C43.5136761,28.7632958 43.5136761,28.7589577 43.5131338,28.7546197 C43.5136761,28.7589577 43.5136761,28.7632958 43.5136761,28.7676338" id="Fill-211" fill="#201713"></path>
                        <path d="M27.2460704,48.0718592 L27.2460704,38.040169 L24.5348028,37.4979155 C24.5348028,37.4979155 25.2679296,33.0281197 27.2460704,28.8218592 L27.2460704,20.7498732 C28.1700704,21.4005775 29.137993,21.9645211 30.1265211,22.4059155 C30.1265211,22.4059155 30.1265211,22.4059155 30.1270634,22.4059155 C28.8202324,21.1202324 27.9737746,19.6697042 27.7509085,18.3352183 C30.0202394,20.9152606 33.7059366,23.0951197 37.3943451,24.0375563 C36.1401127,22.9964296 35.1683944,21.8029296 34.6109577,20.6186479 C34.618007,20.6246127 34.6255986,20.6311197 34.6326479,20.6370845 C34.6353592,20.6392535 34.6380704,20.6419648 34.6407817,20.6435915 C34.645662,20.6479296 34.65,20.6517254 34.6548803,20.6555211 C34.6581338,20.6582324 34.6613873,20.6609437 34.6646408,20.6636549 C34.6684366,20.6669085 34.6722324,20.670162 34.6760282,20.6734155 C34.6803662,20.676669 34.684162,20.6799225 34.6879577,20.6831761 C34.690669,20.6853451 34.692838,20.6875141 34.6955493,20.6896831 C36.2984507,22.015493 38.4783099,22.9893803 40.5285704,23.3461831 C40.6782324,24.2707254 40.7568592,25.1844225 40.7872254,26.0563662 C39.2965704,26.0645 38.0911408,27.2753521 38.0911408,28.7676338 L38.0911408,31.5873521 C38.0911408,33.0845141 39.3047042,34.2986197 40.8024085,34.2986197 L40.8024085,34.5155211 C40.8024085,35.9877394 40.3447465,37.5553944 39.5666127,39.0823803 C37.1779859,43.767993 31.7630423,48.0718592 27.2460704,48.0718592 M34.0253239,27.5822676 C33.999838,27.5822676 33.9748944,27.5828099 33.9494085,27.5833521 C32.7672958,27.6251056 31.8427535,28.6163451 31.8839648,29.7984577 C31.9240915,30.9550845 32.874662,31.8649859 34.0226127,31.8649859 C34.0480986,31.8649859 34.0735845,31.8649859 34.0990704,31.8639014 C35.2806408,31.8226901 36.2057254,30.8309085 36.1639718,29.6487958 C36.1238451,28.492169 35.1732746,27.5822676 34.0253239,27.5822676" id="Fill-212" fill="#EAB093"></path>
                        <path d="M40.7872254,26.0563662 C40.7568592,25.1844225 40.6782324,24.2707254 40.5285704,23.3461831 C40.619669,23.3624507 40.7113099,23.3770915 40.8024085,23.3906479 L40.8024085,26.0563662 C40.7969859,26.0563662 40.7921056,26.0563662 40.7872254,26.0563662" id="Fill-213" fill="#2B1E17"></path>
                        <path d="M40.8024085,34.2986197 C39.3047042,34.2986197 38.0911408,33.0845141 38.0911408,31.5873521 L38.0911408,28.7676338 C38.0911408,27.2753521 39.2965704,26.0645 40.7872254,26.0563662 C40.7921056,26.0563662 40.7969859,26.0563662 40.8024085,26.0563662 C40.9238732,26.0563662 41.0404577,26.0764296 41.1581268,26.0921549 C42.2822183,26.2412746 43.1872394,27.0687535 43.4388451,28.1575986 C43.4833099,28.3506408 43.5120493,28.5491056 43.5131338,28.7546197 C43.5136761,28.7589577 43.5136761,28.7632958 43.5136761,28.7676338 L43.5136761,31.5873521 C43.5136761,33.0845141 42.2995704,34.2986197 40.8024085,34.2986197" id="Fill-214" fill="#EAB093"></path>
                        <path d="M37.3943451,24.0375563 C36.1401127,22.9964296 35.1683944,21.8029296 34.6109577,20.6186479 C35.1683944,21.8029296 36.1401127,22.9964296 37.3943451,24.0375563 M37.3943451,24.0375563 C33.7059366,23.0951197 30.0202394,20.9152606 27.7509085,18.3352183 C30.0202394,20.9152606 33.7064789,23.0951197 37.3943451,24.0375563 M40.8024085,23.3906479 C40.7113099,23.3770915 40.619669,23.3624507 40.5285704,23.3461831 C38.4783099,22.9893803 36.2984507,22.015493 34.6955493,20.6896831 C36.3705704,22.0751408 38.6729789,23.0642113 40.8024085,23.3781761 L40.8024085,23.3906479 M30.1265211,22.4059155 C29.137993,21.9645211 28.1700704,21.4005775 27.2460704,20.7498732 L27.2460704,20.7487887 C28.1706127,21.3989507 29.1385352,21.9645211 30.1265211,22.4059155 M34.6879577,20.6831761 C34.684162,20.6799225 34.6803662,20.676669 34.6760282,20.6734155 C34.6803662,20.676669 34.684162,20.6799225 34.6879577,20.6831761 M34.6646408,20.6636549 C34.6613873,20.6609437 34.6581338,20.6582324 34.6548803,20.6555211 C34.6581338,20.6582324 34.6613873,20.6609437 34.6646408,20.6636549 M34.6407817,20.6435915 C34.6380704,20.6419648 34.6353592,20.6392535 34.6326479,20.6370845 C34.6353592,20.6392535 34.6380704,20.6414225 34.6407817,20.6435915" id="Fill-215" fill="#2B1E17"></path>
                        <path d="M36.878662,14.8702183 C30.6047887,12.9208169 23.8868099,12.9208169 17.6129366,14.8702183 C16.1786761,10.7230634 14.6901901,6.59326056 13.1480211,2.48243662 C22.3110211,-0.494535211 32.1811197,-0.494535211 41.3435775,2.48243662 C39.8019507,6.59326056 38.3134648,10.7230634 36.878662,14.8702183" id="Fill-224" fill="#65BEAD"></path>
                        <polyline id="Fill-225" fill="#FFFFFF" points="31.3129718 5.41494366 28.8099296 5.41494366 28.8099296 2.91244366 25.681669 2.91244366 25.681669 5.41494366 23.179169 5.41494366 23.179169 8.54320423 25.681669 8.54320423 25.681669 11.0462465 28.8099296 11.0462465 28.8099296 8.54320423 31.3129718 8.54320423 31.3129718 5.41494366"></polyline>
                    </g>
                </g>
                <mask id="mask-4" fill="white">
                    <use xlink:href="#path-3"></use>
                </mask>
                <use id="Mask-Copy" stroke="#2286EA" stroke-width="2" xlink:href="#path-3"></use>
            </g>
        </g>
    </g>
</svg>