<?xml version="1.0" encoding="UTF-8"?>
<svg width="77px" height="77px" viewBox="0 0 77 77" version="1.1" xmlns="http://www.w3.org/2000/svg" xmlns:xlink="http://www.w3.org/1999/xlink">
    <!-- Generator: Sketch 51 (57462) - http://www.bohemiancoding.com/sketch -->
    <title>Other_male</title>
    <desc>Created with Sketch.</desc>
    <defs>
        <path d="M76.9721102,38.2107953 C76.9721102,59.3136457 59.8647717,76.4209843 38.7619213,76.4209843 C17.6590709,76.4209843 0.551125984,59.3136457 0.551125984,38.2107953 C0.551125984,17.1073386 17.6590709,0 38.7619213,0 C59.8647717,0 76.9721102,17.1073386 76.9721102,38.2107953" id="path-1"></path>
    </defs>
    <g id="Care-Circle" stroke="none" stroke-width="1" fill="none" fill-rule="evenodd">
        <g id="13.-MDx---Care-Circle---Illustrations" transform="translate(-115.000000, -1303.000000)">
            <rect fill="#FFFFFF" x="0" y="0" width="605" height="1581"></rect>
            <g id="Other_male" transform="translate(114.500000, 1303.500000)">
                <mask id="mask-2" fill="white">
                    <use xlink:href="#path-1"></use>
                </mask>
                <g id="Mask"></g>
                <path d="M49.3181969,50.481685 C51.8482835,50.481685 53.3991969,47.1858425 55.2653858,46.0429685 C56.524063,45.2711496 54.8003543,41.6770079 55.7364803,41.6770079 C60.7808898,41.6770079 56.7999291,38.6667323 59.0978031,36.645937 C61.2180315,34.7809606 58.7406929,34.5275276 58.7485748,33.3161417 C58.7600945,31.4760236 60.4565197,31.5318031 59.2887874,29.7644409 C59.1463071,29.3745906 58.264748,26.9597008 58.8849921,26.3424882 C59.8265748,25.4069685 61.2974567,24.8934331 59.792622,23.3795039 C58.7552441,22.336063 54.1594961,23.3855669 55.9620236,19.8229528 C57.4911102,16.8005512 54.124937,17.7336457 51.9768189,17.3037795 C50.807874,12.153874 46.3649134,16.5931969 45.0340866,13.8957717 C44.4823543,12.7777559 45.1899055,11.6730787 43.4176929,11.6730787 C40.7154173,11.6730787 40.81,12.8917402 38.8146693,13.3034173 C36.8957323,13.6993307 32.3084724,11.0455591 32.2884646,14.192252 C32.2799764,15.5964409 31.0425197,15.9383937 29.7601969,15.8219843 C29.1642047,15.7686299 28.6646142,15.5261102 27.6866535,15.5261102 C26.4582913,15.5261102 26.9293858,16.3694724 26.3473386,16.5634882 C22.2493622,18.2259606 23.4928819,17.2667953 23.2115591,20.4159134 C22.9569134,23.2594567 19.4003622,22.2487559 18.4527165,23.0824173 C15.0059055,26.115126 21.7843307,28.8064882 19.2936535,30.787874 C18.8734882,31.1225512 16.3621969,33.146378 16.311874,33.7514646 C16.145748,35.7486142 16.8878583,36.7150551 18.960189,36.7150551 C21.0494961,38.6345984 19.5792205,37.8749055 19.5683071,39.531315 C19.5537559,41.8898189 22.4233701,41.657 22.5810079,42.9350787 C22.7240945,44.0991732 21.772811,45.038937 22.6355748,46.0429685 C23.3655591,46.8917874 26.2030394,47.4841417 27.2828583,48.2626299 C28.3378189,49.0223228 29.3933858,50.481685 30.7466457,50.481685 L49.3181969,50.481685" id="Fill-43" fill="#D8935F" mask="url(#mask-2)"></path>
                <path d="M47.4222992,55.1489764 C47.0858031,56.6580551 46.7123228,60.0466614 47.3052835,61.6436535 C47.5259764,62.2378268 59.000189,66.6383465 60.3607244,67.1815906 C63.2054803,68.317189 65.7101024,69.4861339 66.7784016,70.6508346 C67.9885748,71.9701417 68.896811,74.2734724 68.896811,77.3437717 C45.6864646,77.3437717 33.5380472,77.3437717 10.3671102,77.3437717 C10.3671102,74.2734724 11.2753465,71.9701417 12.4855197,70.6508346 C13.5538189,69.4861339 16.0584409,68.317189 18.9038031,67.1815906 C20.2637323,66.6383465 31.7379449,62.2378268 31.9586378,61.6436535 C32.5515984,60.0466614 32.1787244,56.6580551 31.8422283,55.1489764 C41.1507402,50.2306772 38.044063,50.1942992 47.4222992,55.1489764" id="Fill-45" fill="#F5C097" mask="url(#mask-2)"></path>
                <path d="M50.3331417,63.1587953 C50.3331417,63.1587953 47.1470394,67.6848189 44.6581811,67.9582598 C40.927622,68.3681181 40.0490945,67.1215669 37.5832756,64.6818189 C35.5242835,62.6452598 33.0342126,59.9399528 32.2314724,58.0573937 C32.2314724,58.0573937 31.8003937,54.3565433 31.5269528,53.7272047 C31.2535118,53.0978661 38.4496772,50.4265118 38.4496772,50.4265118 L45.7246614,50.2900945 L47.4222992,55.1489764 C47.4222992,55.1489764 46.5061811,59.705315 47.3052835,61.6436535 L50.3331417,63.1587953" id="Fill-46" fill="#C89E80" mask="url(#mask-2)"></path>
                <path d="M28.3942047,46.039937 C28.3942047,46.039937 26.1830315,46.7189921 24.5908898,44.8521969 C22.9981417,42.9847953 20.0945748,34.2837953 26.8802756,35.4939685 L28.3942047,46.039937" id="Fill-47" fill="#F5C097" mask="url(#mask-2)"></path>
                <path d="M50.943685,46.039937 C50.943685,46.039937 53.1548583,46.7189921 54.747,44.8521969 C56.339748,42.9847953 59.243315,34.2837953 52.4576142,35.4939685 L50.943685,46.039937" id="Fill-48" fill="#F5C097" mask="url(#mask-2)"></path>
                <path d="M47.1355197,56.6410787 C40.465622,63.820874 38.4611969,63.820874 31.7912992,56.6410787 C27.3574331,51.8682913 26.5922835,46.868748 26.2897402,41.0155354 C26.0162992,35.7067795 24.5496614,28.4039055 27.4592913,24.9261732 C32.0271496,19.4682677 46.8996693,19.4682677 51.4669213,24.9261732 C54.3771575,28.4039055 52.9105197,35.7067795 52.6370787,41.0155354 C52.3345354,46.868748 51.5693858,51.8682913 47.1355197,56.6410787" id="Fill-49" fill="#F5C097" mask="url(#mask-2)"></path>
                <path d="M48.094685,62.1280866 C50.9297402,63.5080236 59.2299764,66.7305039 60.3607244,67.1815906 C63.2054803,68.3165827 65.7101024,69.4861339 66.7784016,70.6508346 C67.9885748,71.9701417 68.896811,74.2734724 68.896811,77.3437717 C45.6864646,77.3437717 33.5380472,77.3437717 10.3671102,77.3437717 C10.3671102,74.2734724 11.2753465,71.9701417 12.4855197,70.6508346 C13.5538189,69.4861339 16.0584409,68.3165827 18.9038031,67.1815906 C20.0345512,66.7305039 28.3572205,63.494685 31.1928819,62.1141417 L39.6404488,63.9366772 L48.094685,62.1280866" id="Fill-50" fill="#FAF9F7" mask="url(#mask-2)"></path>
                <path d="M32.2575433,58.556378 C31.6136535,58.4727087 31.5099764,60.7487559 31.2001575,62.1274803 C31.2001575,62.1274803 32.9590315,66.7153465 36.6101654,70.3670866 C36.6101654,70.3670866 36.8999764,70.6902441 37.1352205,70.5944488 C37.1764488,70.5774724 37.369252,70.0287717 37.5693307,69.4303543 C37.6263228,69.2611969 37.6839213,69.0865827 37.7384882,68.9204567 C37.9027953,68.4202598 38.044063,67.9825118 38.0737717,67.9036929 C38.6734016,66.3424724 39.4870551,64.2082992 39.5640551,63.9257638 C39.5422283,63.9197008 39.519189,63.9130315 39.4967559,63.9063622 C37.5214331,63.3352283 32.3030157,60.3085827 32.2575433,58.556378" id="Fill-51" fill="#EBEBE7" mask="url(#mask-2)"></path>
                <path d="M47.0379055,58.556378 C47.681189,58.4727087 47.7848661,60.7487559 48.094685,62.1274803 C48.094685,62.1274803 46.3364173,66.7153465 42.6846772,70.3670866 C42.6846772,70.3670866 42.3948661,70.6902441 42.159622,70.5944488 C42.0711024,70.5586772 41.2974646,68.1019528 41.2210709,67.9036929 C40.6214409,66.3424724 39.8077874,64.2082992 39.7307874,63.9257638 C41.6515433,63.4061654 46.9918268,60.3291969 47.0379055,58.556378" id="Fill-52" fill="#EBEBE7" mask="url(#mask-2)"></path>
                <polygon id="Fill-53" fill="#2D302E" mask="url(#mask-2)" points="37.6281417 76.4209843 41.5139134 76.4209843 41.5139134 68.6852126 37.6281417 68.6852126"></polygon>
                <path d="M37.7354567,69.4364173 C37.7354567,69.4364173 39.8471969,68.2571654 41.6600315,69.4879528 C41.6600315,69.4879528 42.0232047,69.6722677 41.758252,68.53 C41.4926929,67.3877323 40.560811,63.9536535 39.7307874,63.9257638 C38.9013701,63.8984803 37.6360236,67.5708346 37.4729291,68.6524724 C37.3098346,69.7341102 37.7354567,69.4364173 37.7354567,69.4364173" id="Fill-54" fill="#1F2222" mask="url(#mask-2)"></path>
                <path d="M29.3121417,77.3437717 L10.3671102,77.3437717 C10.3671102,74.2734724 11.2753465,71.9701417 12.4855197,70.6508346 C13.5538189,69.4861339 16.0584409,68.3165827 18.9038031,67.1815906 C19.4500787,66.9633228 21.6794409,66.0938898 24.1561732,65.0983465 L29.3121417,77.3437717" id="Fill-55" fill="#8F654A" mask="url(#mask-2)"></path>
                <polyline id="Fill-56" fill="#73523D" mask="url(#mask-2)" points="22.1547795 65.9077559 26.7911496 77.3437717 29.3121417 77.3437717 24.1628425 65.1135039 22.1547795 65.9077559"></polyline>
                <path d="M49.9517795,77.3437717 L68.896811,77.3437717 C68.896811,74.2734724 67.9885748,71.9701417 66.7784016,70.6508346 C65.7101024,69.4861339 63.2054803,68.3165827 60.3607244,67.1815906 C59.8138425,66.9633228 57.5850866,66.0938898 55.107748,65.0983465 L49.9517795,77.3437717" id="Fill-57" fill="#8F654A" mask="url(#mask-2)"></path>
                <polyline id="Fill-58" fill="#73523D" mask="url(#mask-2)" points="57.1091417 65.9077559 52.4727717 77.3437717 49.9517795 77.3437717 55.1010787 65.1135039 57.1091417 65.9077559"></polyline>
                <path d="M76.9721102,38.2107953 C76.9721102,59.3136457 59.8647717,76.4209843 38.7619213,76.4209843 C17.6590709,76.4209843 0.551125984,59.3136457 0.551125984,38.2107953 C0.551125984,17.1073386 17.6590709,0 38.7619213,0 C59.8647717,0 76.9721102,17.1073386 76.9721102,38.2107953" id="Fill-7-Copy" stroke="#2286EA" stroke-width="4" mask="url(#mask-2)"></path>
            </g>
        </g>
    </g>
</svg>